<svg width="49" height="49" viewBox="0 0 49 49" fill="none" xmlns="http://www.w3.org/2000/svg">
<path fill-rule="evenodd" clip-rule="evenodd" d="M41.0165 6.93661C36.4926 2.41273 30.4607 0 24.1273 0C10.8573 0 0 10.8573 0 24.1273C0 28.3496 1.20638 32.5719 3.31753 36.191L0 48.2546L12.6669 44.9371C16.286 46.7467 20.2066 47.953 24.1273 47.953C37.3973 47.953 48.2546 37.0958 48.2546 23.8257C48.2546 17.4923 45.5403 11.4605 41.0165 6.93661ZM24.1273 44.0324C20.5082 44.0324 16.8891 43.1276 13.8732 41.318L13.27 41.0164L5.73022 43.1276L7.8414 35.8894L7.23818 34.9846C5.12704 31.6671 4.22226 28.048 4.22226 24.4289C4.22226 13.5716 13.27 4.52387 24.1273 4.52387C29.556 4.52387 34.3815 6.63501 38.3022 10.2541C42.2228 14.1748 44.0324 19.0003 44.0324 24.4289C44.0324 34.9846 35.2862 44.0324 24.1273 44.0324ZM34.9846 28.9528C34.3815 28.6512 31.3656 27.1432 30.7624 27.1432C30.1592 26.8416 29.8575 26.8416 29.5559 27.4448C29.2543 28.048 28.048 29.2544 27.7465 29.8576C27.4449 30.1592 27.1432 30.1592 26.54 30.1592C25.9368 29.8576 24.1274 29.2544 21.7146 27.1432C19.9051 25.6353 18.6987 23.5241 18.3971 22.921C18.0955 22.3178 18.3971 22.0162 18.6987 21.7146C19.0003 21.413 19.3019 21.1114 19.6034 20.8098C19.905 20.5082 19.9051 20.2066 20.2067 19.905C20.5083 19.6034 20.2067 19.3019 20.2067 19.0003C20.2067 18.6987 19.0003 15.6828 18.3971 14.4764C18.0955 13.5716 17.4923 13.5716 17.1908 13.5716C16.8892 13.5716 16.5875 13.5716 15.9843 13.5716C15.6827 13.5716 15.0795 13.5716 14.4764 14.1748C13.8732 14.778 12.3653 16.2859 12.3653 19.3019C12.3653 22.3178 14.4764 25.0321 14.778 25.6353C15.0796 25.9369 19.0002 32.2703 25.0321 34.683C30.1591 36.7942 31.064 36.191 32.2703 36.191C33.4767 36.191 35.8894 34.683 36.191 33.4767C36.7942 31.9687 36.7942 30.7623 36.4926 30.7623C36.191 29.2544 35.5878 29.2544 34.9846 28.9528Z" fill="#25D366"/>
</svg>
