<svg width="27" height="27" viewBox="0 0 27 27" fill="none" xmlns="http://www.w3.org/2000/svg">
<path fill-rule="evenodd" clip-rule="evenodd" d="M13.5 0C6.04385 0 0 6.04385 0 13.5C0 20.9562 6.04385 27 13.5 27C20.9562 27 27 20.9562 27 13.5C27 6.04385 20.9562 0 13.5 0ZM19.4262 14.2338C19.6206 14.0391 19.7299 13.7752 19.7299 13.5C19.7299 13.2248 19.6206 12.9609 19.4262 12.7662L15.2723 8.61231C15.1772 8.51028 15.0626 8.42845 14.9352 8.37169C14.8078 8.31493 14.6703 8.28441 14.5309 8.28195C14.3914 8.27949 14.2529 8.30514 14.1236 8.35737C13.9943 8.4096 13.8769 8.48734 13.7783 8.58595C13.6796 8.68456 13.6019 8.80202 13.5497 8.93133C13.4974 9.06063 13.4718 9.19913 13.4743 9.33857C13.4767 9.478 13.5072 9.61551 13.564 9.7429C13.6208 9.87028 13.7026 9.98493 13.8046 10.08L16.1862 12.4615H8.30769C8.03227 12.4615 7.76814 12.5709 7.57339 12.7657C7.37864 12.9604 7.26923 13.2246 7.26923 13.5C7.26923 13.7754 7.37864 14.0396 7.57339 14.2343C7.76814 14.4291 8.03227 14.5385 8.30769 14.5385H16.1862L13.8046 16.92C13.7026 17.0151 13.6208 17.1297 13.564 17.2571C13.5072 17.3845 13.4767 17.522 13.4743 17.6614C13.4718 17.8009 13.4974 17.9394 13.5497 18.0687C13.6019 18.198 13.6796 18.3154 13.7783 18.4141C13.8769 18.5127 13.9943 18.5904 14.1236 18.6426C14.2529 18.6949 14.3914 18.7205 14.5309 18.7181C14.6703 18.7156 14.8078 18.6851 14.9352 18.6283C15.0626 18.5716 15.1772 18.4897 15.2723 18.3877L19.4262 14.2338Z" fill="white"/>
</svg>
