<svg width="24" height="24" viewBox="0 0 24 24" fill="none" xmlns="http://www.w3.org/2000/svg">
<path d="M4.25995 10.147C3.9849 12.2526 3.82101 14.3712 3.76895 16.494C6.64776 17.6965 9.40413 19.1733 12 20.904C14.5961 19.1733 17.3528 17.6964 20.232 16.494C20.1799 14.3712 20.016 12.2526 19.741 10.147M19.741 10.147C20.616 9.853 21.503 9.581 22.399 9.333C19.1355 7.04525 15.6519 5.08888 12 3.493C8.34795 5.08922 4.86435 7.04592 1.60095 9.334C2.49422 9.58062 3.38056 9.85173 4.25895 10.147C6.92757 11.0442 9.51685 12.1621 12 13.489C14.4827 12.1621 17.0726 11.0442 19.741 10.147ZM6.74995 15C6.94886 15 7.13963 14.921 7.28028 14.7803C7.42093 14.6397 7.49995 14.4489 7.49995 14.25C7.49995 14.0511 7.42093 13.8603 7.28028 13.7197C7.13963 13.579 6.94886 13.5 6.74995 13.5C6.55104 13.5 6.36027 13.579 6.21962 13.7197C6.07897 13.8603 5.99995 14.0511 5.99995 14.25C5.99995 14.4489 6.07897 14.6397 6.21962 14.7803C6.36027 14.921 6.55104 15 6.74995 15ZM6.74995 15V11.325C8.44669 10.2703 10.1992 9.30826 12 8.443M4.99295 19.993C5.55092 19.4364 5.99339 18.775 6.29492 18.0469C6.59644 17.3187 6.75108 16.5381 6.74995 15.75V14.25" stroke="white" stroke-width="1.5" stroke-linecap="round" stroke-linejoin="round"/>
</svg>
