<svg width="55" height="56" viewBox="0 0 55 56" fill="none" xmlns="http://www.w3.org/2000/svg">
<g clip-path="url(#clip0_1_431)">
<path d="M44.5191 18.4903C45.8552 20.8152 46.1377 23.4609 45.5153 25.8701C44.5897 24.6596 43.42 23.6087 42.0236 22.7988C41.1187 22.2741 40.1519 21.872 39.1514 21.6016C39.4133 20.6128 39.556 19.5752 39.556 18.5051C39.556 16.8866 39.2338 15.345 38.6541 13.935C41.0422 14.5986 43.1816 16.1653 44.5176 18.4903H44.5191Z" fill="white"/>
<path d="M37.3828 38.1039C37.3828 39.9012 36.9001 41.5847 36.0614 43.0346C36.0526 43.0346 36.0452 43.0346 36.0364 43.0346C34.3767 43.0346 32.6934 42.6104 31.1528 41.7162C30.3406 41.2447 29.6225 40.6727 29.0016 40.0253C29.7667 38.9094 30.3435 37.659 30.7025 36.3125C30.8791 35.6518 30.9954 34.9852 31.0586 34.3171C32.6036 35.031 34.3046 35.4198 36.0555 35.4198C36.3719 35.4198 36.6868 35.405 37.0002 35.3799C37.2474 36.2445 37.3828 37.1579 37.3828 38.1024V38.1039Z" fill="white"/>
<path d="M19.1577 43.0346C19.1489 43.0346 19.1416 43.0346 19.1327 43.0346C18.294 41.5847 17.8114 39.9012 17.8114 38.1039C17.8114 37.1594 17.9468 36.246 18.194 35.3813C18.5074 35.4065 18.8237 35.4212 19.1401 35.4212C20.8911 35.4212 22.592 35.0325 24.137 34.3186C24.2003 34.9867 24.3165 35.6533 24.4931 36.314C24.8521 37.6605 25.4304 38.9109 26.194 40.0268C25.5731 40.6727 24.8551 41.2462 24.0428 41.7177C22.5023 42.6119 20.819 43.0361 19.1592 43.0361L19.1577 43.0346Z" fill="white"/>
<path d="M17.8114 18.5051C17.8114 16.7078 18.294 15.0243 19.1327 13.5743C19.1416 13.5743 19.1489 13.5743 19.1577 13.5743C20.8175 13.5743 22.5008 13.9985 24.0414 14.8927C24.8565 15.3657 25.5761 15.9407 26.1985 16.5895C25.036 18.2893 24.3342 20.2595 24.1429 22.2948C22.5964 21.5794 20.8925 21.1892 19.1401 21.1892C18.8237 21.1892 18.5089 21.204 18.1954 21.2291C17.9482 20.3644 17.8129 19.4525 17.8129 18.5065L17.8114 18.5051Z" fill="white"/>
<path d="M36.0349 13.5743C36.0437 13.5743 36.051 13.5743 36.0599 13.5743C36.8986 15.0243 37.3812 16.7078 37.3812 18.5051C37.3812 19.4495 37.2458 20.363 36.9986 21.2276C36.6852 21.2025 36.3689 21.1877 36.054 21.1877C34.3001 21.1877 32.5976 21.5779 31.0497 22.2933C30.8584 20.258 30.1566 18.2878 28.9941 16.588C29.6165 15.9392 30.3361 15.3642 31.1512 14.8913C32.6918 13.997 34.3751 13.5728 36.0349 13.5728V13.5743Z" fill="white"/>
<path d="M30.7025 26.5027C30.8541 25.9293 30.963 25.3484 31.0277 24.7675C32.5462 23.8585 36.0805 23.3737 36.0953 23.3737C35.2124 24.9272 33.919 26.2145 32.3637 27.0881C31.8282 26.853 31.2734 26.6565 30.701 26.5027H30.7025Z" fill="white"/>
<path d="M28.9325 23.5526C28.4616 23.9029 28.0143 24.2857 27.5964 24.704C27.1785 24.2857 26.7312 23.9029 26.2604 23.5526C26.2353 21.7612 26.6988 19.9935 27.5964 18.4459C28.494 19.992 28.9575 21.7612 28.9325 23.5526Z" fill="white"/>
<path d="M19.1401 23.3723C20.9073 23.3723 22.6465 23.857 24.165 24.766C24.2297 25.3484 24.3386 25.9278 24.4902 26.5027C23.9178 26.6579 23.363 26.8545 22.8275 27.088C21.2722 26.2145 19.9803 24.9272 19.0959 23.3737C19.1107 23.3737 19.1239 23.3737 19.1386 23.3737L19.1401 23.3723Z" fill="white"/>
<path d="M20.6895 28.3045C19.0298 29.4884 17.682 31.0847 16.7976 32.9455C15.928 32.7282 15.0717 32.3913 14.2565 31.9183C12.7071 31.0196 11.4976 29.7589 10.6677 28.3045C11.4976 26.8501 12.7071 25.5893 14.2565 24.6907C15.0717 24.2177 15.9266 23.8807 16.7976 23.6634C17.682 25.5243 19.0298 27.1206 20.6895 28.3045Z" fill="white"/>
<path d="M22.8275 29.5209C23.3616 29.7544 23.9148 29.951 24.4872 30.1062C24.3342 30.6782 24.2238 31.2591 24.1576 31.8459C22.6406 32.7519 20.9028 33.2367 19.1386 33.2367C19.1239 33.2367 19.1107 33.2367 19.0959 33.2367C19.9788 31.6833 21.2722 30.3959 22.8275 29.5224V29.5209Z" fill="white"/>
<path d="M26.2604 33.0564C26.7312 32.7061 27.1785 32.3233 27.5964 31.905C28.0143 32.3218 28.4616 32.7061 28.9325 33.0564C28.9575 34.8478 28.494 36.6155 27.5964 38.163C26.6988 36.617 26.2353 34.8478 26.2604 33.0564Z" fill="white"/>
<path d="M36.054 33.2367C34.2898 33.2367 32.5535 32.7534 31.035 31.8459C30.9688 31.2591 30.8585 30.6767 30.7054 30.1047C31.2764 29.9495 31.8311 29.7544 32.3652 29.5194C33.9205 30.3929 35.2124 31.6803 36.0967 33.2337C36.082 33.2337 36.0688 33.2337 36.054 33.2337V33.2367Z" fill="white"/>
<path d="M34.5032 28.3045C36.1629 27.1206 37.5107 25.5243 38.3965 23.6634C39.2661 23.8807 40.1225 24.2177 40.9377 24.6907C42.4871 25.5893 43.6966 26.8501 44.5264 28.3045C43.6966 29.7589 42.4856 31.0196 40.9377 31.9183C40.1225 32.3913 39.2676 32.7297 38.3965 32.9455C37.5122 31.0847 36.1644 29.4884 34.5046 28.3045H34.5032Z" fill="white"/>
<path d="M34.4546 11.4962C32.9155 11.7046 31.4205 12.2145 30.0639 13.0008C29.1413 13.5359 28.3173 14.1788 27.5963 14.9016C26.8753 14.1788 26.0513 13.5359 25.1287 13.0008C23.7721 12.2145 22.2771 11.7046 20.738 11.4962C22.5037 9.75211 24.9242 8.6761 27.5963 8.6761C30.2684 8.6761 32.6889 9.75359 34.4546 11.4962Z" fill="white"/>
<path d="M10.6736 18.4903C12.0097 16.1653 14.1506 14.5986 16.5372 13.935C15.9575 15.345 15.6352 16.8881 15.6352 18.5051C15.6352 19.5752 15.7779 20.6128 16.0399 21.6016C15.0393 21.872 14.0726 22.2741 13.1677 22.7988C11.7934 23.5954 10.6148 24.636 9.67452 25.8598C9.05652 23.4535 9.33904 20.8123 10.6736 18.4888V18.4903Z" fill="white"/>
<path d="M10.6736 38.1187C9.33904 35.7967 9.05652 33.1539 9.67452 30.7477C10.6148 31.9715 11.7948 33.012 13.1677 33.8087C14.0726 34.3334 15.0393 34.7354 16.0399 35.0059C15.7779 35.9947 15.6352 37.0323 15.6352 38.1024C15.6352 39.7194 15.9575 41.2625 16.5372 42.6725C14.1491 42.0089 12.0097 40.4422 10.6736 38.1172V38.1187Z" fill="white"/>
<path d="M20.738 45.1127C22.2771 44.9043 23.7721 44.3944 25.1287 43.6081C26.0425 43.079 26.8679 42.439 27.5963 41.7118C28.3246 42.439 29.1501 43.079 30.0639 43.6081C31.4205 44.3944 32.9155 44.9043 34.4546 45.1127C32.6889 46.8568 30.2684 47.9328 27.5963 47.9328C24.9242 47.9328 22.5037 46.8554 20.738 45.1127Z" fill="white"/>
<path d="M44.5191 38.1187C43.1831 40.4436 41.0422 42.0104 38.6555 42.674C39.2353 41.2639 39.5575 39.7209 39.5575 38.1039C39.5575 37.0338 39.4148 35.9962 39.1529 35.0074C40.1534 34.7369 41.1201 34.3349 42.0251 33.8102C43.3994 33.0135 44.578 31.973 45.5182 30.7492C46.1362 33.1554 45.8537 35.7967 44.5191 38.1202V38.1187Z" fill="white"/>
<path d="M4.60546 34.2075L0.15686 35.4048L0.311097 35.9831L4.75969 34.7857L4.60546 34.2075Z" fill="white"/>
<path fill-rule="evenodd" clip-rule="evenodd" d="M4.27882 32.9559L0.929876 33.4288L0.873963 33.0283L1.28596 32.8628C0.953419 32.5598 0.757721 32.2021 0.700336 31.7897C0.582623 30.9502 0.940176 30.4728 1.77153 30.3545L3.8727 30.0574L3.9551 30.6501L1.84362 30.9487C1.34629 31.0196 1.13293 31.3034 1.20209 31.8C1.24917 32.14 1.43604 32.4415 1.76123 32.7076L4.19494 32.3647L4.27734 32.9573L4.27882 32.9559Z" fill="white"/>
<path fill-rule="evenodd" clip-rule="evenodd" d="M3.66824 28.8706L3.15324 28.8528C3.29597 28.4582 3.37396 28.0576 3.38867 27.6512C3.4078 27.1102 3.25624 26.8338 2.934 26.8235C2.63383 26.8131 2.47639 26.9964 2.46315 27.3733L2.44696 27.8581C2.42195 28.5912 2.07617 28.9459 1.41109 28.9223C0.766609 28.9001 0.462026 28.4183 0.494398 27.4753C0.509112 27.0703 0.576797 26.6698 0.697453 26.2751L1.21245 26.2929C1.06972 26.6875 0.991736 27.0866 0.977021 27.4916C0.957893 28.0562 1.10798 28.3444 1.43022 28.3547C1.73039 28.3651 1.88636 28.1921 1.8996 27.8374L1.91578 27.3526C1.94227 26.5766 2.28952 26.2012 2.9546 26.2234C3.59761 26.2456 3.90366 26.7274 3.87129 27.6674C3.85658 28.0754 3.78889 28.4759 3.66824 28.8706Z" fill="white"/>
<path fill-rule="evenodd" clip-rule="evenodd" d="M0.163343 24.7675L0.214843 24.3965L0.775452 24.3448L0.901993 23.4358L1.3802 23.5038L1.26543 24.3212L3.18857 24.5931C3.50051 24.6375 3.67561 24.5236 3.71387 24.2532L3.77125 23.8438L4.24946 23.9117L4.17 24.4749C4.09055 25.038 3.75065 25.2774 3.14884 25.1932L0.1604 24.772L0.163343 24.7675Z" fill="white"/>
<path fill-rule="evenodd" clip-rule="evenodd" d="M1.33163 21.5661L4.61288 22.3879L4.46869 22.9688L1.18743 22.147L1.33163 21.5661ZM0.144199 21.269L0.691565 21.4065L0.547366 21.9873L0 21.8499L0.144199 21.269Z" fill="white"/>
<path fill-rule="evenodd" clip-rule="evenodd" d="M1.17273 20.088L1.2875 19.7318L1.84811 19.7791L2.13062 18.9056L2.5897 19.0549L2.33662 19.8397L4.18324 20.4428C4.48341 20.5403 4.67617 20.459 4.76004 20.1989L4.88805 19.8057L5.34713 19.955L5.17203 20.496C4.99694 21.037 4.62025 21.2143 4.04199 21.0251L1.17273 20.088Z" fill="white"/>
<path fill-rule="evenodd" clip-rule="evenodd" d="M3.91098 14.9386L6.94945 16.4269L6.76993 16.7965L6.33734 16.6989C6.41532 17.1955 6.3653 17.6315 6.18284 18.0055C5.84147 18.7076 5.29411 18.8731 4.54074 18.5036L2.63379 17.5695L2.89423 17.0315L4.81001 17.97C5.26173 18.1917 5.59575 18.0764 5.81499 17.6271C5.96507 17.3182 5.97831 16.962 5.85766 16.557L3.64906 15.4751L3.90951 14.9371L3.91098 14.9386Z" fill="white"/>
<path fill-rule="evenodd" clip-rule="evenodd" d="M4.38782 13.1856L4.60264 12.8782L5.125 13.0881L5.64882 12.3357L6.04463 12.6136L5.57378 13.2891L7.16438 14.4079C7.42335 14.5897 7.63081 14.569 7.78678 14.3444L8.02368 14.0059L8.41949 14.2838L8.09431 14.7494C7.76913 15.2164 7.3586 15.2741 6.85979 14.9238L4.38782 13.1856Z" fill="white"/>
<path fill-rule="evenodd" clip-rule="evenodd" d="M9.55685 12.1155C10.0101 11.6115 9.93354 11.0853 9.32879 10.5384C8.73728 10.0034 8.21493 9.9886 7.76173 10.4926C7.31001 10.9981 7.37916 11.5169 7.97067 12.0534C8.57542 12.6003 9.10366 12.621 9.55685 12.117V12.1155ZM7.58222 12.5057C6.74498 11.7489 6.68465 10.9685 7.4027 10.1674C8.12075 9.36635 8.89913 9.34418 9.73637 10.1024C10.5721 10.8592 10.631 11.6366 9.91294 12.4392C9.19783 13.2373 8.42092 13.2595 7.58222 12.5072V12.5057Z" fill="white"/>
<path fill-rule="evenodd" clip-rule="evenodd" d="M13.3605 5.92399C13.0971 5.96685 12.8381 6.0777 12.585 6.25655C12.0274 6.64823 11.9568 7.14189 12.3717 7.73754C12.8631 8.44257 13.387 8.59924 13.9446 8.20608C14.1977 8.02724 14.3993 7.83509 14.5479 7.62817L13.3605 5.92399ZM15.2763 7.62965C15.0173 7.97699 14.6421 8.32433 14.1506 8.67019C13.3252 9.24958 12.5777 9.05743 11.9053 8.09375C11.2843 7.20397 11.4123 6.45017 12.2878 5.83383C12.5277 5.66533 12.7837 5.55152 13.0574 5.48944L12.2628 4.34987L12.7513 4.00697L15.2763 7.62965Z" fill="white"/>
<path fill-rule="evenodd" clip-rule="evenodd" d="M16.2989 3.55912C17.17 3.15119 17.8071 3.38028 18.2088 4.24494C18.2662 4.36761 18.3177 4.50359 18.3662 4.65287L16.215 5.6609C16.5078 6.29054 17.0184 6.43391 17.7512 6.09101C18.0999 5.92842 18.3912 5.74367 18.6252 5.5397L18.8297 5.98015C18.5958 6.1856 18.2853 6.37775 17.8983 6.55955C16.8463 7.05321 16.0752 6.77386 15.5882 5.72445C15.1232 4.72234 15.3601 4.00106 16.2989 3.5606V3.55912ZM16.0061 5.2101L17.6644 4.43412C17.4025 3.90055 17.014 3.75275 16.5005 3.99367C15.9561 4.24937 15.7913 4.65435 16.0061 5.2101Z" fill="white"/>
<path fill-rule="evenodd" clip-rule="evenodd" d="M21.6092 5.02977L21.5048 4.49029C22.0124 4.56715 22.5406 4.55237 23.0895 4.44447C23.8664 4.29223 24.2004 3.93159 24.09 3.35959C23.9959 2.87331 23.6618 2.6856 23.0895 2.79645L22.5083 2.91026C21.5621 3.09502 21.0089 2.77428 20.85 1.94954C20.6822 1.08193 21.2031 0.529139 22.4156 0.292653C22.9423 0.18919 23.4441 0.158151 23.9223 0.19658L24.0268 0.736065C23.5412 0.654773 23.035 0.666597 22.5083 0.768582C21.6872 0.929688 21.3282 1.28442 21.4356 1.83425C21.5298 2.32052 21.855 2.50971 22.4111 2.40182L22.9924 2.28801C23.9547 2.1003 24.5167 2.41808 24.6771 3.2443C24.8493 4.1326 24.3519 4.6913 23.1836 4.9204C22.6333 5.0283 22.1095 5.06377 21.6107 5.02977H21.6092Z" fill="white"/>
<path fill-rule="evenodd" clip-rule="evenodd" d="M25.7954 3.47783C25.7836 2.78168 26.2339 2.42547 27.1491 2.40921C27.4434 2.40477 27.7377 2.42103 28.032 2.45798L28.0261 2.13725C28.0187 1.74705 27.7127 1.55786 27.105 1.5682C26.7577 1.57412 26.4016 1.63472 26.0382 1.74852L26.0294 1.26373C26.3928 1.14992 26.7474 1.08932 27.0961 1.08341C28.1011 1.06567 28.6088 1.40858 28.6205 2.11064L28.6617 4.45186L28.3262 4.45777L28.1144 4.12521C27.7818 4.35579 27.4154 4.47403 27.0196 4.48142C26.2148 4.4962 25.8057 4.16069 25.7939 3.47783H25.7954ZM27.1565 2.89401C26.6385 2.90287 26.384 3.09059 26.3899 3.45714C26.3958 3.82369 26.6032 4.00254 27.0108 3.99662C27.4228 3.98923 27.7701 3.87395 28.0511 3.64781L28.0393 2.94278C27.745 2.90435 27.4508 2.88809 27.1565 2.89401Z" fill="white"/>
<path d="M30.4056 -0.000955635L29.8444 4.59083L30.4358 4.66378L30.9971 0.0719961L30.4056 -0.000955635Z" fill="white"/>
<path fill-rule="evenodd" clip-rule="evenodd" d="M35.2434 2.1742L34.4253 5.47023L34.028 5.3712L34.0324 4.92631C33.5645 5.10663 33.1304 5.14654 32.7287 5.04603C31.9753 4.85684 31.6987 4.35431 31.9018 3.53548L32.4153 1.4677L32.9936 1.61255L32.4786 3.69067C32.3564 4.1799 32.5374 4.48586 33.0215 4.60706C33.3526 4.68983 33.7028 4.6307 34.0721 4.42673L34.6666 2.03231L35.2448 2.17716L35.2434 2.1742Z" fill="white"/>
<path fill-rule="evenodd" clip-rule="evenodd" d="M38.7468 4.26858C38.5746 4.06314 38.3466 3.89907 38.064 3.77196C37.4416 3.49409 36.984 3.68623 36.6897 4.35135C36.341 5.13767 36.4779 5.66977 37.1003 5.94764C37.3828 6.07327 37.6506 6.14717 37.9051 6.16934L38.7468 4.27006V4.26858ZM38.2789 6.79603C37.8492 6.75317 37.3592 6.60832 36.8104 6.36297C35.8908 5.95207 35.6686 5.20862 36.1453 4.1326C36.5853 3.13936 37.2945 2.86149 38.27 3.29899C38.5364 3.41871 38.7674 3.57982 38.9601 3.78526L39.5237 2.51415L40.0681 2.75803L38.2774 6.79751L38.2789 6.79603Z" fill="white"/>
<path fill-rule="evenodd" clip-rule="evenodd" d="M45.9346 6.5492L45.6447 6.93644L43.7157 5.47614L42.7858 6.71622L44.625 8.10853L44.3337 8.49578L42.4944 7.10346L41.2349 8.78252L40.7596 8.42335L43.5303 4.72825L45.9346 6.5492Z" fill="white"/>
<path fill-rule="evenodd" clip-rule="evenodd" d="M48.2712 10.6729L45.7977 12.989L45.5182 12.689L45.7639 12.318C45.2739 12.2145 44.8869 12.0091 44.6044 11.7046C44.0747 11.1341 44.1159 10.5606 44.7309 9.98564L46.2833 8.53125L46.6894 8.96875L45.1297 10.4291C44.7618 10.7734 44.7486 11.1282 45.0885 11.4947C45.321 11.746 45.6476 11.8864 46.067 11.9174L47.8636 10.234L48.2697 10.6715L48.2712 10.6729Z" fill="white"/>
<path fill-rule="evenodd" clip-rule="evenodd" d="M46.5613 13.9261L49.3967 12.0771L49.6159 12.4155L49.3114 12.7407C49.741 12.8752 50.0677 13.1161 50.2943 13.465C50.7533 14.1759 50.6312 14.7612 49.9279 15.2194L48.1475 16.3796L47.8238 15.8771L49.6115 14.7109C50.0323 14.436 50.1074 14.0887 49.8352 13.666C49.6498 13.3777 49.3526 13.1841 48.9464 13.0807L46.8865 14.4242L46.5613 13.9217V13.9261Z" fill="white"/>
<path fill-rule="evenodd" clip-rule="evenodd" d="M49.8633 19.6757C49.6867 19.4495 49.5307 19.1894 49.3954 18.8953C48.8877 17.8 49.1629 17.0049 50.2238 16.5082C51.2067 16.0486 51.9512 16.3649 52.4603 17.4601C52.5957 17.7527 52.6943 18.041 52.7531 18.3218L52.3146 18.5272C52.2558 18.2464 52.1528 17.9493 52.0071 17.636C51.6761 16.9221 51.1655 16.727 50.4739 17.0507C49.7058 17.4113 49.4866 17.9478 49.8177 18.6603C49.9633 18.9736 50.1237 19.2426 50.3003 19.4688L49.8618 19.6742L49.8633 19.6757Z" fill="white"/>
<path fill-rule="evenodd" clip-rule="evenodd" d="M53.4594 20.1797L50.2444 21.2291L50.0604 20.6601L53.2755 19.6106L53.4594 20.1797ZM54.6233 19.7998L54.0877 19.9742L53.9038 19.4052L54.4394 19.2308L54.6233 19.7998Z" fill="white"/>
<path fill-rule="evenodd" clip-rule="evenodd" d="M51.3656 23.7048C51.4951 24.3714 51.9585 24.6271 52.7575 24.4704C53.5388 24.3182 53.8655 23.9088 53.7375 23.2407C53.608 22.5741 53.1533 22.3169 52.3705 22.4692C51.5716 22.6258 51.2376 23.0367 51.3656 23.7033V23.7048ZM52.244 21.8853C53.3505 21.6696 54.0053 22.0908 54.2113 23.1491C54.4158 24.2073 53.9656 24.8444 52.8591 25.0602C51.754 25.276 51.1007 24.8547 50.8962 23.7965C50.6917 22.7426 51.1419 22.1056 52.2455 21.8853H52.244Z" fill="white"/>
<path fill-rule="evenodd" clip-rule="evenodd" d="M51.2905 26.4303L54.6718 26.3712L54.6792 26.7762L54.2495 26.89C54.5424 27.2314 54.6939 27.6113 54.7013 28.0281C54.716 28.875 54.304 29.3066 53.4638 29.3214L51.342 29.3583L51.3317 28.7597L53.4638 28.7228C53.9656 28.7139 54.2128 28.4582 54.2039 27.9557C54.198 27.6128 54.0494 27.2891 53.7581 26.9861L51.3008 27.0289L51.2905 26.4303Z" fill="white"/>
<path fill-rule="evenodd" clip-rule="evenodd" d="M52.2676 30.5245C52.9548 30.622 53.2344 31.1246 53.1063 32.0351C53.0651 32.3277 53.0033 32.6174 52.9195 32.9041L53.2358 32.9485C53.6213 33.0032 53.8553 32.7283 53.9406 32.1237C53.9892 31.7779 53.9848 31.4158 53.9303 31.0374L54.4085 31.1054C54.4645 31.4837 54.4674 31.8459 54.4188 32.1917C54.2791 33.1909 53.8626 33.6417 53.1696 33.5441L50.861 33.2175L50.908 32.8849L51.2685 32.7268C51.0949 32.3602 51.0346 31.9789 51.0905 31.5842C51.2023 30.7832 51.5952 30.4314 52.2691 30.526L52.2676 30.5245ZM52.6281 31.9671C52.7002 31.4527 52.556 31.1704 52.1941 31.1187C51.8321 31.0669 51.6232 31.2443 51.5672 31.6508C51.5099 32.0617 51.5702 32.4238 51.7468 32.7371L52.4413 32.8361C52.5251 32.5494 52.5869 32.2597 52.6281 31.9671Z" fill="white"/>
<path d="M50.5536 34.3407L50.3994 34.9189L54.8466 36.1159L55.0008 35.5377L50.5536 34.3407Z" fill="white"/>
<path fill-rule="evenodd" clip-rule="evenodd" d="M3.78446 37.1106C4.21264 36.9362 4.51281 37.0648 4.68643 37.4949C4.85859 37.925 4.73205 38.2266 4.30387 38.401C3.87568 38.5739 3.57552 38.4468 3.40336 38.0167C3.22973 37.5866 3.35775 37.285 3.78593 37.1121L3.78446 37.1106Z" fill="white"/>
<path fill-rule="evenodd" clip-rule="evenodd" d="M3.51965 42.2365L6.87742 39.8746L7.33062 40.5234L5.57963 43.4603L8.90944 42.7878L9.34498 43.413L5.98574 45.7764L5.58258 45.1985L7.92212 43.5519L4.94545 44.2821L4.57319 43.7485L6.26237 41.1693L3.92282 42.8144L3.51965 42.2365Z" fill="white"/>
<path fill-rule="evenodd" clip-rule="evenodd" d="M12.095 46.1888L11.6418 46.6617L10.1645 45.228L9.4479 45.9744L10.8546 47.3387L10.3823 47.8294L8.96969 46.4592L8.22222 47.2367L9.73336 48.7029L9.27575 49.1803L7.22754 47.1924L10.0762 44.2304L12.095 46.1888Z" fill="white"/>
<path fill-rule="evenodd" clip-rule="evenodd" d="M10.4294 50.1957L12.7808 46.8214L13.4032 47.2589L13.4635 50.9658L15.1762 48.5063L15.7751 48.9276L13.4238 52.3019L12.8014 51.8644L12.7778 48.1058L11.0283 50.617L10.4294 50.1957Z" fill="white"/>
<path fill-rule="evenodd" clip-rule="evenodd" d="M19.1917 50.5061L18.9136 51.1077L17.8483 50.6081L16.3946 53.7401L15.7059 53.4179L17.1597 50.2859L16.0944 49.7863L16.3725 49.1862L19.1917 50.5061Z" fill="white"/>
<path fill-rule="evenodd" clip-rule="evenodd" d="M22.4494 51.5171L22.2581 52.1453L20.2937 51.5408L19.9921 52.534L21.8623 53.1075L21.6636 53.7608L19.7861 53.1843L19.4712 54.216L21.4812 54.8338L21.2884 55.4664L18.5648 54.6313L19.764 50.6924L22.4494 51.5171Z" fill="white"/>
<path d="M24.3759 54.122L24.3234 54.7242L25.751 54.8499L25.8036 54.2477L24.3759 54.122Z" fill="white"/>
<path fill-rule="evenodd" clip-rule="evenodd" d="M31.812 55.6778C31.4706 55.8433 31.0778 55.9453 30.6305 55.9837C29.1635 56.1123 28.3689 55.4649 28.2453 54.0401C28.1276 52.6921 28.8015 51.9531 30.2685 51.8245C30.7158 51.7846 31.1219 51.8171 31.4854 51.9206L31.5457 52.6094C31.1808 52.4867 30.7923 52.4438 30.3833 52.4808C29.4033 52.5665 28.9516 53.0646 29.031 53.9736C29.1164 54.9595 29.6505 55.4088 30.6305 55.3216C31.0395 55.2861 31.4147 55.1753 31.7532 54.992L31.8135 55.6807L31.812 55.6778Z" fill="white"/>
<path fill-rule="evenodd" clip-rule="evenodd" d="M33.1583 53.9677L32.4299 51.5762L33.1568 51.3531L33.8852 53.7445C34.0764 54.3727 34.4914 54.5885 35.1314 54.3919C35.7715 54.1953 35.9952 53.783 35.8039 53.1548L35.0755 50.7633L35.8024 50.5401L36.5308 52.9316C36.8501 53.9825 36.4484 54.6801 35.3242 55.0245C34.2 55.3704 33.4776 55.0171 33.1583 53.9677Z" fill="white"/>
<path fill-rule="evenodd" clip-rule="evenodd" d="M39.3118 48.9379L39.5973 49.5277L37.7521 50.4322L38.2053 51.3634L39.9622 50.5017L40.2609 51.1166L38.4952 51.9812L38.966 52.9523L40.8553 52.0256L41.1452 52.6212L38.5849 53.8746L36.7883 50.1736L39.3118 48.9379Z" fill="white"/>
<path fill-rule="evenodd" clip-rule="evenodd" d="M42.5386 51.7669L40.1313 48.4398L41.6395 47.3387C42.3164 46.845 42.8711 46.8953 43.3008 47.4894C43.5921 47.8915 43.5686 48.4177 43.2331 49.0665L45.3254 49.739L44.55 50.3051L42.4915 49.5897L42.287 49.3074C42.802 48.7783 42.93 48.3349 42.671 47.9772C42.493 47.7318 42.2678 47.7097 41.9912 47.9107L41.1496 48.5255L43.1639 51.3102L42.5371 51.7669H42.5386Z" fill="white"/>
<path fill-rule="evenodd" clip-rule="evenodd" d="M46.2789 48.8773L43.3287 46.0158L44.603 44.69C45.1842 44.0855 45.7522 44.0515 46.3069 44.5895C46.9072 45.1719 46.8734 45.939 46.2053 46.8894L45.6433 46.4962C46.0317 45.9124 46.0744 45.4734 45.7728 45.1807C45.5285 44.9428 45.2872 44.9472 45.0518 45.1926L44.3396 45.9346L46.8086 48.329L46.2804 48.8773H46.2789Z" fill="white"/>
<path fill-rule="evenodd" clip-rule="evenodd" d="M49.8942 43.7042C50.368 43.0243 50.2135 42.4109 49.4322 41.8611C48.6627 41.3201 48.0417 41.3896 47.5679 42.0695C47.0824 42.7656 47.2236 43.3849 47.9932 43.9259C48.7745 44.4757 49.4087 44.4018 49.8942 43.7057V43.7042ZM47.5562 44.5836C46.4173 43.7825 46.2422 42.8174 47.0294 41.6881C47.8048 40.5767 48.7612 40.42 49.9001 41.2211C51.0316 42.0177 51.2111 42.9711 50.4357 44.084C49.6838 45.163 48.7245 45.33 47.5562 44.5836Z" fill="white"/>
<path fill-rule="evenodd" clip-rule="evenodd" d="M50.8712 38.4025C50.443 38.2295 50.3165 37.9265 50.4887 37.4979C50.6608 37.0678 50.9624 36.9407 51.3906 37.1136C51.8188 37.288 51.9454 37.5895 51.7732 38.0196C51.601 38.4497 51.2994 38.5769 50.8712 38.4039V38.4025Z" fill="white"/>
</g>
<defs>
<clipPath id="clip0_1_431">
<rect width="55" height="56" fill="white"/>
</clipPath>
</defs>
</svg>
