<svg width="127" height="32" viewBox="0 0 127 32" fill="none" xmlns="http://www.w3.org/2000/svg">
<path d="M11.9349 20.5158C7.35561 23.0239 3.30324 26.392 0 30.4354H10.0331C12.7156 27.5008 15.9446 25.1175 19.5394 23.4189L17.4896 18.0156C15.5775 18.7074 13.7206 19.5432 11.9349 20.5158Z" fill="url(#paint0_linear_45_1265)"/>
<path d="M49.856 18.2794C49.8501 18.2768 49.844 18.2749 49.8377 18.2737C47.5077 17.48 45.1261 16.8465 42.7098 16.3773C42.1507 16.2687 41.5873 16.1696 41.0225 16.0783C36.2454 15.2917 31.3793 15.2035 26.5768 15.8163C26.0213 15.8891 25.4669 15.9726 24.9136 16.0668L26.5768 20.2182L26.8229 20.8315C29.174 20.2594 31.5685 19.8828 33.9817 19.7057C34.1515 19.6931 34.3212 19.6826 34.4909 19.6717C39.335 19.3858 44.1956 19.7494 48.9433 20.7528C49.2471 20.8152 49.5509 20.8811 49.8557 20.948C52.3636 21.5074 54.8361 22.2149 57.2603 23.067C59.5574 23.8731 61.8111 24.7978 64.0125 25.8373C61.9025 24.172 59.642 22.7067 57.2603 21.4605C54.8792 20.2081 52.4034 19.1447 49.8557 18.2801L49.856 18.2794Z" fill="url(#paint1_linear_45_1265)"/>
<path d="M45.449 30.4348L48.9451 20.7518C44.1975 19.7479 39.3368 19.3843 34.4927 19.6708L38.3706 30.4358H45.4521L45.449 30.4348Z" fill="white"/>
<path d="M41.0213 16.0777L34.709 0.945312H26.5757V15.8167C31.3782 15.2039 36.2442 15.2922 41.0213 16.0787V16.0777Z" fill="white"/>
<path d="M57.259 23.0663C54.8351 22.2134 52.3625 21.5058 49.8544 20.9473V30.4351H57.259V23.0663Z" fill="white"/>
<path d="M57.2597 0.945312H49.105L42.7085 16.3781C45.1247 16.8478 47.5062 17.4814 49.8364 18.2744L49.8548 18.2235V18.2802C52.4019 19.1462 54.8776 20.2096 57.2594 21.4606V0.945312H57.2597Z" fill="white"/>
<path d="M11.9349 20.5156L15.1225 11.7796L17.4886 18.0168L19.5384 23.4201L22.2015 30.4366H33.9796V19.7051C31.5664 19.8828 29.172 20.2594 26.8208 20.831L26.5747 20.2176L24.9139 16.0662L18.8582 0.945312H11.4858L0 30.4355C3.30321 26.392 7.35558 23.0238 11.9349 20.5156Z" fill="white"/>
<path d="M62.4026 8.5358C62.4026 9.34769 63.9979 10.0035 63.3438 9.72377C56.8306 6.18429 62.8045 -4.0506 77.5851 2.14383L72.8783 9.53471C70.6228 8.15938 62.4053 6.23894 62.4053 8.5358H62.4026Z" fill="url(#paint2_linear_45_1265)"/>
<path d="M77.5867 21.7494C77.5867 25.7797 74.8475 29.0398 70.6865 30.5119C73.3622 27.47 74.264 23.6216 67.6656 20.7909C67.0132 20.5103 66.3045 20.2474 65.5394 20.0021C65.5312 19.9987 65.5221 19.9963 65.5129 19.9929C62.7137 19.031 53.4243 16.4938 53.4243 8.76248C53.4243 4.7322 56.1634 1.47207 60.3245 0C57.6488 3.04189 56.7469 6.89024 63.3453 9.72101C63.9977 10.0016 64.7064 10.2645 65.4715 10.5098C65.4797 10.5132 65.4888 10.5156 65.498 10.519C68.2972 11.4809 77.5867 14.0205 77.5867 21.7494Z" fill="url(#paint3_linear_45_1265)"/>
<path d="M82.7932 15.8619L84.9655 10.9426H86.3365L88.5149 15.8619H87.0666L85.3657 11.6242H85.9139L84.213 15.8619H82.7932ZM83.9812 14.8993L84.3396 13.881H86.7435L87.1019 14.8993H83.9812Z" fill="white"/>
<path d="M90.1937 15.9247C89.8753 15.9252 89.5579 15.8873 89.2484 15.812C88.9887 15.7553 88.7388 15.6606 88.5068 15.5309L88.9005 14.6176C89.099 14.7319 89.3117 14.8196 89.5332 14.8782C89.762 14.9428 89.9984 14.9762 90.2362 14.9773C90.3957 14.9896 90.5559 14.9642 90.7039 14.9033C90.7422 14.8856 90.7747 14.8574 90.7977 14.822C90.8206 14.7865 90.8331 14.7453 90.8336 14.7031C90.8325 14.6672 90.8205 14.6324 90.7992 14.6036C90.7778 14.5747 90.7481 14.553 90.7141 14.5415C90.6111 14.4983 90.5021 14.4711 90.3909 14.4607C90.2552 14.4448 90.1089 14.4268 89.9517 14.4051C89.7892 14.3829 89.6284 14.3498 89.4704 14.306C89.3139 14.2645 89.1638 14.2017 89.0244 14.1193C88.8908 14.0392 88.7805 13.9254 88.7047 13.7894C88.6195 13.6248 88.5783 13.441 88.5852 13.2558C88.5821 13.0215 88.6574 12.7928 88.799 12.6061C88.9624 12.401 89.1787 12.2445 89.4246 12.1534C89.7491 12.0316 90.0941 11.974 90.4405 11.9836C90.7134 11.9844 90.9855 12.0126 91.2527 12.0678C91.495 12.112 91.7286 12.195 91.9445 12.3136L91.544 13.2269C91.371 13.12 91.1808 13.0438 90.9819 13.0016C90.8085 12.9657 90.6321 12.9471 90.4551 12.9459C90.2912 12.9354 90.127 12.9607 89.9738 13.0199C89.877 13.0688 89.8292 13.1312 89.8292 13.2066C89.8302 13.2447 89.8428 13.2815 89.8654 13.3122C89.888 13.3429 89.9194 13.366 89.9554 13.3783C90.0584 13.4237 90.1671 13.4543 90.2786 13.4693C90.4093 13.491 90.5562 13.5114 90.7178 13.5331C90.8801 13.5544 91.0408 13.586 91.1991 13.6275C91.353 13.6673 91.4999 13.7303 91.6349 13.8141C91.7665 13.8968 91.8762 14.01 91.9547 14.1441C92.0487 14.3273 92.0902 14.533 92.0747 14.7383C92.0593 14.9437 91.9874 15.1408 91.8671 15.3079C91.7016 15.5131 91.4827 15.6687 91.2344 15.7573C90.9017 15.879 90.5489 15.9366 90.1947 15.927L90.1937 15.9247Z" fill="white"/>
<path d="M94.5659 15.9245C94.1808 15.9319 93.7996 15.8452 93.4556 15.6719C93.1423 15.5129 92.8786 15.2709 92.6933 14.9724C92.5059 14.6671 92.4095 14.3147 92.4156 13.9565C92.4095 13.5962 92.5058 13.2416 92.6933 12.9338C92.8792 12.6358 93.1427 12.3939 93.4556 12.2343C93.8028 12.068 94.1828 11.9817 94.5678 11.9817C94.9527 11.9817 95.3327 12.068 95.6799 12.2343C95.9947 12.3925 96.2596 12.6346 96.4456 12.9338C96.6336 13.2413 96.7299 13.5961 96.7233 13.9565C96.73 14.3147 96.6336 14.6673 96.4456 14.9724C96.259 15.2711 95.9942 15.513 95.6799 15.6719C95.3344 15.8449 94.9522 15.9315 94.5659 15.9245ZM94.5659 14.8631C94.7077 14.8652 94.8473 14.8286 94.9698 14.7572C95.0935 14.6823 95.1933 14.5737 95.2576 14.4442C95.3341 14.2904 95.3716 14.1201 95.3669 13.9483C95.3725 13.7779 95.3349 13.6089 95.2576 13.4569C95.2059 13.3647 95.1364 13.2837 95.0532 13.2186C94.97 13.1534 94.8748 13.1053 94.7729 13.0772C94.671 13.049 94.5646 13.0413 94.4597 13.0546C94.3549 13.0678 94.2537 13.1016 94.162 13.1541C94.0402 13.2269 93.9406 13.3316 93.8741 13.4569C93.7964 13.6087 93.7587 13.7779 93.7648 13.9483C93.7597 14.1201 93.7973 14.2905 93.8741 14.4442C93.9388 14.5735 94.0385 14.682 94.162 14.7572C94.2844 14.8286 94.4241 14.8652 94.5659 14.8631Z" fill="white"/>
<path d="M99.2809 15.9243C98.8888 15.932 98.5006 15.8454 98.1489 15.6717C97.8319 15.5129 97.5644 15.2704 97.3754 14.9705C97.1912 14.6628 97.094 14.3109 97.094 13.9522C97.094 13.5936 97.1912 13.2417 97.3754 12.934C97.5663 12.6361 97.8334 12.3946 98.1489 12.2344C98.4998 12.0581 98.8883 11.9699 99.2809 11.9775C99.6715 11.9677 100.057 12.0636 100.398 12.2551C100.701 12.4282 100.937 12.6995 101.066 13.0243L100.033 13.5578C99.9609 13.3998 99.8467 13.2647 99.7028 13.1675C99.5745 13.0863 99.4256 13.0437 99.2738 13.0446C99.1274 13.0425 98.983 13.079 98.8553 13.1505C98.7297 13.2221 98.6263 13.3269 98.5562 13.4533C98.4758 13.6071 98.4369 13.7792 98.4435 13.9526C98.4374 14.1234 98.4762 14.2929 98.5562 14.4441C98.6244 14.5736 98.7282 14.681 98.8553 14.7536C98.983 14.8251 99.1274 14.8616 99.2738 14.8595C99.4256 14.8603 99.5744 14.8176 99.7028 14.7366C99.8469 14.6397 99.9612 14.5046 100.033 14.3463L101.066 14.8731C100.937 15.1981 100.702 15.4695 100.398 15.6422C100.058 15.8343 99.6715 15.9302 99.2809 15.9199V15.9243Z" fill="white"/>
<path d="M102.225 11.6302C102.009 11.641 101.796 11.5681 101.631 11.4265C101.56 11.3632 101.503 11.2852 101.465 11.1977C101.426 11.1103 101.408 11.0156 101.409 10.9201C101.408 10.8252 101.426 10.731 101.465 10.6442C101.503 10.5573 101.56 10.4799 101.631 10.4174C101.797 10.2779 102.009 10.2063 102.225 10.2172C102.439 10.2066 102.649 10.2742 102.816 10.4072C102.888 10.4654 102.946 10.5393 102.985 10.6233C103.024 10.7074 103.044 10.7993 103.041 10.8919C103.044 10.9905 103.025 11.0884 102.987 11.1792C102.949 11.27 102.892 11.3516 102.819 11.4187C102.657 11.5648 102.444 11.6405 102.225 11.6292V11.6302ZM101.558 15.8611V12.0453H102.893V15.8611H101.558Z" fill="white"/>
<path d="M104.959 15.9249C104.695 15.9325 104.432 15.8795 104.19 15.7701C103.991 15.6792 103.823 15.5327 103.706 15.3482C103.595 15.1711 103.538 14.9662 103.541 14.7576C103.536 14.5403 103.599 14.3268 103.721 14.1467C103.859 13.9593 104.054 13.8203 104.276 13.7496C104.585 13.6498 104.91 13.6039 105.235 13.6138H106.135V14.3167H105.418C105.26 14.303 105.102 14.3375 104.964 14.4158C104.921 14.4487 104.887 14.4914 104.864 14.5403C104.842 14.5893 104.831 14.643 104.834 14.6969C104.833 14.7503 104.845 14.8033 104.868 14.8515C104.891 14.8997 104.925 14.9418 104.967 14.9745C105.072 15.0526 105.202 15.0913 105.332 15.0838C105.475 15.0866 105.615 15.0487 105.736 14.9745C105.859 14.8971 105.95 14.7786 105.993 14.6402L106.177 15.1317C106.12 15.3747 105.973 15.587 105.766 15.7257C105.523 15.8693 105.243 15.9389 104.961 15.9259L104.959 15.9249ZM106.084 15.8611V15.1514L105.993 14.9762V13.6691C105.998 13.5786 105.983 13.4879 105.95 13.4036C105.917 13.3193 105.865 13.2433 105.799 13.181C105.622 13.0512 105.403 12.9901 105.184 13.0093C104.994 13.0106 104.805 13.0413 104.625 13.1003C104.454 13.1521 104.291 13.2305 104.144 13.3324L103.703 12.4326C103.942 12.282 104.205 12.1706 104.479 12.1027C104.774 12.0241 105.078 11.9839 105.383 11.9832C105.897 11.9508 106.407 12.1029 106.819 12.4122C106.999 12.5824 107.138 12.7908 107.226 13.022C107.315 13.2532 107.349 13.5013 107.329 13.7479V15.8628H106.085L106.084 15.8611Z" fill="white"/>
<path d="M110.168 15.9243C109.776 15.932 109.387 15.8454 109.036 15.6717C108.719 15.5129 108.451 15.2704 108.262 14.9705C108.078 14.6628 107.981 14.3109 107.981 13.9522C107.981 13.5936 108.078 13.2417 108.262 12.934C108.453 12.6361 108.72 12.3946 109.036 12.2344C109.386 12.0581 109.775 11.9699 110.168 11.9775C110.558 11.9677 110.944 12.0636 111.285 12.2551C111.588 12.4282 111.824 12.6995 111.952 13.0243L110.919 13.5578C110.848 13.3998 110.733 13.2647 110.59 13.1675C110.461 13.0863 110.312 13.0437 110.161 13.0446C110.014 13.0425 109.87 13.079 109.742 13.1505C109.616 13.2221 109.513 13.3269 109.443 13.4533C109.363 13.607 109.324 13.7792 109.33 13.9526C109.324 14.1235 109.363 14.2929 109.443 14.4441C109.511 14.5736 109.615 14.681 109.742 14.7536C109.87 14.8251 110.014 14.8616 110.161 14.8595C110.312 14.8603 110.461 14.8177 110.59 14.7366C110.734 14.6397 110.848 14.5046 110.919 14.3463L111.952 14.8731C111.824 15.1981 111.588 15.4695 111.285 15.6422C110.944 15.8343 110.558 15.9302 110.168 15.9199V15.9243Z" fill="white"/>
<path d="M113.112 11.6302C112.895 11.6411 112.682 11.5681 112.518 11.4265C112.446 11.3632 112.389 11.2852 112.351 11.1977C112.313 11.1103 112.294 11.0156 112.296 10.9201C112.294 10.8252 112.312 10.731 112.351 10.6442C112.389 10.5573 112.446 10.4799 112.518 10.4174C112.683 10.2779 112.895 10.2063 113.112 10.2172C113.325 10.2066 113.535 10.2742 113.702 10.4072C113.774 10.4654 113.832 10.5393 113.871 10.6233C113.91 10.7074 113.93 10.7993 113.928 10.8919C113.93 10.9905 113.911 11.0884 113.873 11.1792C113.835 11.27 113.778 11.3516 113.706 11.4187C113.543 11.5648 113.33 11.6405 113.112 11.6292V11.6302ZM112.444 15.8611V12.0453H113.78V15.8611H112.444Z" fill="white"/>
<path d="M116.556 15.9254C116.17 15.9329 115.789 15.8462 115.445 15.6729C115.132 15.5139 114.868 15.2719 114.683 14.9734C114.496 14.6681 114.399 14.3156 114.405 13.9575C114.399 13.5972 114.496 13.2426 114.683 12.9348C114.869 12.6367 115.132 12.3949 115.445 12.2353C115.792 12.069 116.173 11.9827 116.557 11.9827C116.942 11.9827 117.322 12.069 117.67 12.2353C117.984 12.3935 118.249 12.6356 118.435 12.9348C118.623 13.2423 118.72 13.5971 118.713 13.9575C118.72 14.3157 118.623 14.6683 118.435 14.9734C118.249 15.2721 117.984 15.514 117.67 15.6729C117.324 15.8459 116.942 15.9325 116.556 15.9254ZM116.556 14.8641C116.697 14.8662 116.837 14.8296 116.959 14.7582C117.083 14.6833 117.183 14.5747 117.247 14.4452C117.324 14.2913 117.361 14.1211 117.357 13.9493C117.362 13.7789 117.325 13.6099 117.247 13.4579C117.18 13.3326 117.081 13.2279 116.959 13.1549C116.837 13.0819 116.698 13.0433 116.556 13.0433C116.414 13.0433 116.274 13.0819 116.152 13.1549C116.031 13.2279 115.931 13.3326 115.864 13.4579C115.786 13.6097 115.748 13.7789 115.755 13.9493C115.749 14.1211 115.787 14.2915 115.864 14.4452C115.928 14.5745 116.028 14.683 116.152 14.7582C116.274 14.8296 116.414 14.8662 116.556 14.8641ZM115.853 11.5958L116.788 10.5344H118.13L116.795 11.5958H115.853Z" fill="white"/>
<path d="M121.805 11.9811C122.083 11.9774 122.358 12.0402 122.606 12.1644C122.847 12.2877 123.044 12.4814 123.172 12.7197C123.321 13.0179 123.392 13.3491 123.379 13.6823V15.8607H122.036V13.8995C122.055 13.6881 121.996 13.4772 121.871 13.3055C121.815 13.2435 121.746 13.1946 121.669 13.1624C121.592 13.1301 121.509 13.1152 121.425 13.1189C121.288 13.117 121.153 13.1494 121.032 13.2132C120.912 13.2794 120.816 13.3812 120.757 13.5044C120.685 13.668 120.652 13.8459 120.66 14.0244V15.8573H119.324V12.0426H120.603V13.1324L120.35 12.8161C120.485 12.5555 120.693 12.3394 120.947 12.1939C121.21 12.0486 121.505 11.9749 121.805 11.9801V11.9811Z" fill="white"/>
<path d="M83.3904 23.2495V18.3303H84.5359L86.5667 21.676H85.9626L87.9513 18.3303H89.0968L89.1036 23.2495H87.825L87.8114 20.2769H88.0297L86.546 22.7649H85.9259L84.4002 20.2769H84.6676V23.2495H83.3904Z" fill="white"/>
<path d="M92.0272 23.3124C91.6177 23.3225 91.2117 23.2348 90.8429 23.0565C90.5226 22.899 90.2523 22.6556 90.0622 22.3535C89.8755 22.0508 89.7792 21.7011 89.7846 21.3455C89.7794 20.9861 89.8733 20.6322 90.0561 20.3228C90.2362 20.0256 90.4945 19.7836 90.8029 19.6232C91.1358 19.4509 91.5064 19.3641 91.8812 19.3707C92.2361 19.3662 92.5868 19.447 92.9039 19.6063C93.2068 19.7599 93.462 19.9932 93.6422 20.281C93.8357 20.6041 93.9321 20.9762 93.9198 21.3526C93.9198 21.3991 93.9174 21.4544 93.913 21.5142C93.9086 21.5739 93.9038 21.6313 93.8994 21.6839H90.8846V20.9809H93.1897L92.6833 21.1778C92.6907 21.0235 92.6582 20.8698 92.5889 20.7318C92.5257 20.6084 92.4296 20.5049 92.3113 20.4328C92.1856 20.3601 92.0423 20.3234 91.8972 20.3269C91.7474 20.324 91.5994 20.3605 91.4681 20.4328C91.3474 20.502 91.2506 20.6063 91.1905 20.7318C91.1244 20.8734 91.0921 21.0284 91.0961 21.1846V21.3882C91.0915 21.5572 91.1316 21.7244 91.2122 21.8729C91.2891 22.0085 91.4053 22.1176 91.5455 22.1859C91.7079 22.2624 91.886 22.2998 92.0655 22.2952C92.2308 22.3005 92.3956 22.2731 92.5502 22.2144C92.694 22.1531 92.827 22.0689 92.9439 21.9652L93.6401 22.7035C93.456 22.9045 93.2273 23.0596 92.9725 23.1563C92.6712 23.2678 92.3517 23.3214 92.0306 23.3144L92.0272 23.3124Z" fill="white"/>
<path d="M93.9821 23.2493L95.7386 20.9514L95.7046 21.7104L94.0323 19.4329H95.5363L96.4714 20.7821L95.9161 20.8106L96.9208 19.4329H98.3257L96.6384 21.6605L96.6452 20.93L98.3746 23.2497H96.8421L95.8716 21.8163L96.4337 21.8937L95.4362 23.2513H93.9797L93.9821 23.2493Z" fill="white"/>
<path d="M99.4493 19.0176C99.2325 19.0284 99.0198 18.9555 98.8553 18.8139C98.7839 18.7507 98.727 18.6727 98.6887 18.5853C98.6504 18.4979 98.6315 18.4033 98.6333 18.3079C98.6314 18.213 98.6503 18.1188 98.6886 18.0319C98.727 17.9451 98.7838 17.8677 98.8553 17.8052C99.0208 17.6656 99.2331 17.594 99.4493 17.6049C99.6627 17.5943 99.8727 17.6619 100.04 17.795C100.112 17.8531 100.17 17.9271 100.209 18.0111C100.248 18.0951 100.267 18.187 100.265 18.2797C100.268 18.3782 100.249 18.4761 100.211 18.5669C100.173 18.6577 100.115 18.7394 100.043 18.8065C99.881 18.9525 99.6674 19.0282 99.4493 19.0169V19.0176ZM98.7816 23.2485V19.4327H100.117V23.2485H98.7816Z" fill="white"/>
<path d="M102.929 23.3125C102.536 23.3202 102.148 23.2336 101.797 23.0599C101.48 22.9016 101.212 22.6597 101.023 22.3604C100.839 22.0526 100.742 21.7007 100.742 21.3421C100.742 20.9835 100.839 20.6316 101.023 20.3239C101.214 20.0259 101.481 19.7844 101.797 19.6243C102.147 19.448 102.536 19.3598 102.929 19.3674C103.319 19.3576 103.705 19.4535 104.046 19.645C104.349 19.8181 104.585 20.0893 104.713 20.4141L103.68 20.9477C103.609 20.7897 103.494 20.6546 103.35 20.5574C103.222 20.4762 103.073 20.4336 102.921 20.4345C102.775 20.4324 102.631 20.4689 102.503 20.5404C102.377 20.612 102.274 20.7167 102.204 20.8432C102.123 20.9969 102.085 21.169 102.091 21.3425C102.085 21.5133 102.124 21.6828 102.204 21.8339C102.272 21.9635 102.376 22.0708 102.503 22.1435C102.631 22.215 102.775 22.2515 102.921 22.2494C103.073 22.2502 103.222 22.2075 103.35 22.1265C103.495 22.0296 103.609 21.8944 103.68 21.7362L104.713 22.263C104.585 22.588 104.349 22.8593 104.046 23.0321C103.705 23.2241 103.319 23.3201 102.929 23.3097V23.3125Z" fill="white"/>
<path d="M106.421 23.3127C106.156 23.3202 105.893 23.2673 105.652 23.1579C105.453 23.0673 105.285 22.9207 105.167 22.736C105.057 22.5588 105 22.354 105.003 22.1454C104.997 21.9282 105.06 21.7146 105.181 21.5344C105.32 21.347 105.514 21.2081 105.736 21.1373C106.046 21.0376 106.37 20.9917 106.696 21.0016H107.595V21.7045H106.879C106.721 21.6904 106.563 21.725 106.426 21.8036C106.383 21.8364 106.349 21.8791 106.326 21.9281C106.304 21.9771 106.293 22.0308 106.296 22.0846C106.295 22.1381 106.307 22.191 106.33 22.2392C106.353 22.2874 106.387 22.3296 106.429 22.3623C106.534 22.4404 106.664 22.479 106.794 22.4716C106.937 22.4744 107.077 22.4365 107.198 22.3623C107.321 22.2853 107.412 22.1666 107.454 22.028L107.637 22.5194C107.581 22.7624 107.434 22.9748 107.227 23.1134C106.984 23.2571 106.704 23.3267 106.422 23.3137L106.421 23.3127ZM107.547 23.2489V22.5391L107.456 22.364V21.0569C107.461 20.9663 107.446 20.8757 107.413 20.7914C107.38 20.707 107.328 20.6311 107.262 20.5688C107.085 20.439 106.867 20.378 106.648 20.397C106.458 20.3983 106.269 20.429 106.089 20.488C105.917 20.5399 105.755 20.6182 105.608 20.7202L105.166 19.8204C105.406 19.6697 105.668 19.5583 105.943 19.4905C106.238 19.4118 106.542 19.3717 106.847 19.371C107.361 19.3386 107.871 19.4907 108.283 19.8C108.463 19.9701 108.602 20.1785 108.69 20.4097C108.778 20.6409 108.813 20.8891 108.793 21.1356V23.2505H107.548L107.547 23.2489Z" fill="white"/>
<path d="M112.113 19.3689C112.39 19.3651 112.665 19.428 112.914 19.5522C113.154 19.6755 113.351 19.8692 113.479 20.1075C113.628 20.4057 113.7 20.7368 113.686 21.0701V23.2488H112.344V21.2876C112.362 21.0763 112.303 20.8655 112.179 20.6936C112.123 20.6316 112.054 20.5828 111.977 20.5505C111.899 20.5182 111.816 20.5034 111.733 20.507C111.596 20.5051 111.46 20.5375 111.339 20.6013C111.219 20.6674 111.124 20.7693 111.065 20.8925C110.992 21.0559 110.958 21.2339 110.966 21.4125V23.2454H109.631V19.4303H110.91V20.5202L110.657 20.2039C110.792 19.9432 111 19.7272 111.255 19.5817C111.517 19.4364 111.813 19.3627 112.113 19.3679V19.3689Z" fill="white"/>
<path d="M115.726 23.3127C115.461 23.3202 115.198 23.2673 114.957 23.1579C114.758 23.0673 114.589 22.9207 114.472 22.736C114.362 22.5588 114.305 22.3539 114.307 22.1454C114.302 21.9282 114.364 21.7147 114.486 21.5344C114.625 21.347 114.819 21.2081 115.041 21.1373C115.351 21.0376 115.675 20.9917 116 21.0016H116.9V21.7045H116.183C116.025 21.6904 115.867 21.725 115.73 21.8036C115.687 21.8364 115.653 21.8791 115.631 21.9281C115.608 21.9771 115.598 22.0308 115.6 22.0846C115.599 22.1381 115.611 22.191 115.634 22.2392C115.657 22.2874 115.691 22.3296 115.733 22.3623C115.839 22.4404 115.968 22.479 116.099 22.4716C116.241 22.4744 116.381 22.4365 116.503 22.3623C116.625 22.2853 116.716 22.1666 116.759 22.028L116.942 22.5194C116.885 22.7624 116.739 22.9748 116.531 23.1134C116.288 23.2571 116.009 23.3267 115.727 23.3137L115.726 23.3127ZM116.851 23.2489V22.5391L116.76 22.364V21.0569C116.766 20.9663 116.751 20.8757 116.718 20.7914C116.684 20.707 116.633 20.6311 116.567 20.5688C116.39 20.439 116.171 20.378 115.952 20.397C115.763 20.3983 115.574 20.429 115.394 20.488C115.222 20.5399 115.06 20.6182 114.912 20.7202L114.471 19.8204C114.711 19.6697 114.973 19.5583 115.248 19.4905C115.543 19.4118 115.846 19.3717 116.151 19.371C116.666 19.3386 117.175 19.4907 117.588 19.8C117.768 19.9701 117.907 20.1785 117.995 20.4097C118.083 20.641 118.118 20.8891 118.097 21.1356V23.2505H116.854L116.851 23.2489Z" fill="white"/>
<path d="M84.9783 30.7008C84.6485 30.7041 84.3237 30.6205 84.0364 30.4585C83.7517 30.2982 83.5167 30.0623 83.3575 29.7769C83.1846 29.4569 83.0987 29.0971 83.1084 28.7336C83.0988 28.3671 83.1846 28.0045 83.3575 27.6813C83.5167 27.396 83.7517 27.1601 84.0364 26.9998C84.3237 26.8378 84.6485 26.7542 84.9783 26.7574C85.2693 26.7492 85.5568 26.8233 85.8075 26.9713C86.0466 27.1259 86.229 27.3538 86.3275 27.6209C86.4554 27.9767 86.5148 28.3534 86.5027 28.7312C86.5143 29.1081 86.4584 29.4841 86.3377 29.8414C86.2464 30.1072 86.0681 30.3345 85.8316 30.4863C85.5722 30.6352 85.2761 30.7081 84.9773 30.6968L84.9783 30.7008ZM85.2593 29.6395C85.4011 29.6416 85.5408 29.605 85.6633 29.5336C85.7865 29.4591 85.8853 29.3504 85.9477 29.2206C86.0174 29.0654 86.0535 28.8971 86.0535 28.7269C86.0535 28.5567 86.0174 28.3885 85.9477 28.2332C85.8828 28.1079 85.7843 28.0031 85.6633 27.9305C85.5408 27.859 85.4011 27.8224 85.2593 27.8246C85.1154 27.8224 84.9736 27.859 84.8486 27.9305C84.7273 28.0028 84.6288 28.1077 84.5642 28.2332C84.4945 28.3885 84.4584 28.5567 84.4584 28.7269C84.4584 28.8971 84.4945 29.0654 84.5642 29.2206C84.6269 29.3502 84.7257 29.4588 84.8486 29.5336C84.9734 29.6054 85.1154 29.642 85.2593 29.6395ZM86.0957 30.637V29.983L86.1025 28.7247L86.0319 27.4665V25.4211H87.3675V30.636H86.0957V30.637Z" fill="white"/>
<path d="M90.2285 30.6992C89.819 30.7094 89.413 30.6216 89.0442 30.4433C88.7239 30.2858 88.4536 30.0424 88.2635 29.7404C88.0768 29.4377 87.9805 29.0879 87.9859 28.7323C87.9807 28.3729 88.0746 28.0191 88.2574 27.7096C88.4375 27.4124 88.6958 27.1704 89.0041 27.0101C89.3371 26.8377 89.7077 26.751 90.0825 26.7576C90.4373 26.753 90.7881 26.8338 91.1052 26.9931C91.4081 27.1467 91.6633 27.38 91.8434 27.6679C92.037 27.991 92.1334 28.363 92.1211 28.7394C92.1211 28.7859 92.1187 28.8412 92.1143 28.901C92.1099 28.9607 92.1051 29.0181 92.1007 29.0707H89.0859V28.3678H91.391L90.8846 28.5646C90.892 28.4103 90.8595 28.2567 90.7902 28.1186C90.7271 27.9951 90.631 27.8915 90.5125 27.8193C90.3869 27.7466 90.2436 27.7099 90.0985 27.7134C89.9486 27.7105 89.8007 27.747 89.6694 27.8193C89.5486 27.8886 89.4518 27.993 89.3918 28.1186C89.3257 28.2602 89.2934 28.4152 89.2974 28.5714V28.7751C89.2928 28.944 89.3328 29.1112 89.4135 29.2598C89.4904 29.3954 89.6066 29.5045 89.7468 29.5727C89.9092 29.6492 90.0873 29.6867 90.2668 29.682C90.4321 29.6873 90.5968 29.6599 90.7515 29.6012C90.8953 29.5399 91.0283 29.4558 91.1452 29.3521L91.8414 30.0903C91.6573 30.2913 91.4286 30.4464 91.1737 30.5431C90.8725 30.6546 90.553 30.7083 90.2318 30.7013L90.2285 30.6992Z" fill="white"/>
<path d="M96.5741 30.7352C96.1789 30.737 95.7852 30.6861 95.4035 30.5839C95.0836 30.5059 94.7785 30.3764 94.5002 30.2003L94.9574 29.1675C95.1952 29.3165 95.4515 29.4336 95.7198 29.5157C95.9981 29.605 96.2886 29.6508 96.5809 29.6515C96.7383 29.6561 96.8956 29.6397 97.0487 29.6026C97.1446 29.5807 97.2323 29.5317 97.3012 29.4614C97.3546 29.4013 97.3834 29.3232 97.382 29.2428C97.3821 29.1899 97.3677 29.138 97.3405 29.0927C97.3132 29.0474 97.274 29.0105 97.2272 28.9859C97.101 28.913 96.9649 28.8586 96.8233 28.8243C96.6573 28.7798 96.4764 28.7377 96.2802 28.698C96.0793 28.6567 95.881 28.6039 95.6862 28.5399C95.4927 28.4778 95.3083 28.3901 95.138 28.2792C94.9742 28.1719 94.8381 28.0273 94.7409 27.8573C94.6331 27.6566 94.5809 27.4308 94.5895 27.2032C94.5869 26.9207 94.6697 26.644 94.8271 26.4093C95.0087 26.1522 95.2597 25.9521 95.5508 25.8323C95.9341 25.6757 96.3462 25.6016 96.7601 25.6151C97.0806 25.6148 97.4001 25.6515 97.7122 25.7244C98.003 25.7891 98.2817 25.8993 98.5381 26.0509L98.1158 27.077C97.8968 26.9521 97.6629 26.8554 97.4197 26.7891C97.202 26.7297 96.9776 26.6991 96.752 26.6982C96.5947 26.6932 96.4378 26.7148 96.2877 26.762C96.19 26.7911 96.1025 26.8471 96.0351 26.9235C95.9862 26.9829 95.959 27.0571 95.9577 27.134C95.9569 27.1879 95.9709 27.2411 95.9982 27.2877C96.0255 27.3342 96.065 27.3724 96.1125 27.3981C96.2372 27.47 96.3723 27.5222 96.513 27.5528C96.677 27.5925 96.8589 27.6336 97.0578 27.6757C97.2584 27.718 97.4567 27.7708 97.6518 27.8339C97.8433 27.895 98.0265 27.9798 98.1969 28.0864C98.3766 28.196 98.5233 28.352 98.6216 28.538C98.72 28.7241 98.7663 28.9332 98.7556 29.1434C98.7568 29.4253 98.6723 29.701 98.5133 29.9339C98.3307 30.1921 98.0786 30.3932 97.7862 30.5139C97.4007 30.6715 96.9863 30.7459 96.5701 30.7325L96.5741 30.7352Z" fill="white"/>
<path d="M101.241 30.7008C100.856 30.7082 100.475 30.6216 100.131 30.4483C99.8178 30.2893 99.5541 30.0473 99.3688 29.7487C99.1814 29.4434 99.0851 29.091 99.0912 28.7328C99.0851 28.3726 99.1814 28.0179 99.3688 27.7102C99.5547 27.4121 99.8182 27.1703 100.131 27.0106C100.478 26.8444 100.858 26.7581 101.243 26.7581C101.628 26.7581 102.008 26.8444 102.355 27.0106C102.67 27.1689 102.935 27.411 103.121 27.7102C103.309 28.0177 103.405 28.3725 103.398 28.7328C103.405 29.0911 103.309 29.4437 103.121 29.7487C102.934 30.0474 102.669 30.2894 102.355 30.4483C102.01 30.6212 101.628 30.7078 101.241 30.7008ZM101.241 29.6394C101.383 29.6416 101.523 29.605 101.645 29.5335C101.769 29.4586 101.869 29.3501 101.933 29.2206C102.01 29.0667 102.047 28.8964 102.042 28.7247C102.048 28.5543 102.01 28.3852 101.933 28.2332C101.866 28.108 101.766 28.0032 101.645 27.9302C101.523 27.8572 101.383 27.8187 101.241 27.8187C101.099 27.8187 100.96 27.8572 100.838 27.9302C100.716 28.0032 100.617 28.108 100.55 28.2332C100.472 28.3851 100.434 28.5542 100.44 28.7247C100.435 28.8965 100.473 29.0669 100.55 29.2206C100.614 29.3499 100.714 29.4583 100.838 29.5335C100.96 29.6046 101.1 29.6409 101.241 29.6384V29.6394Z" fill="white"/>
<path d="M103.61 27.9666V26.969H106.373V27.9666H103.61ZM104.166 30.6375V26.8767C104.156 26.6736 104.188 26.4706 104.259 26.2802C104.33 26.0898 104.44 25.9161 104.582 25.7699C104.74 25.6263 104.925 25.5159 105.127 25.4454C105.329 25.3748 105.542 25.3455 105.756 25.3592C105.917 25.3592 106.079 25.3756 106.237 25.408C106.379 25.4335 106.516 25.4836 106.641 25.556L106.31 26.4966C106.251 26.4622 106.188 26.435 106.123 26.4158C106.051 26.3938 105.976 26.383 105.901 26.3839C105.842 26.3815 105.783 26.3912 105.728 26.4124C105.673 26.4335 105.623 26.4656 105.581 26.5067C105.536 26.5594 105.502 26.6204 105.481 26.6862C105.46 26.752 105.452 26.8214 105.458 26.8903V27.151L105.5 27.7198V30.6375H104.166ZM107.659 26.4066C107.442 26.4175 107.23 26.3446 107.065 26.203C106.994 26.1397 106.937 26.0616 106.898 25.9742C106.86 25.8867 106.841 25.792 106.843 25.6965C106.841 25.6016 106.86 25.5074 106.898 25.4206C106.937 25.3338 106.994 25.2564 107.065 25.1939C107.231 25.0543 107.443 24.9827 107.659 24.9936C107.873 24.983 108.082 25.0506 108.25 25.1837C108.322 25.2418 108.38 25.3157 108.419 25.3998C108.458 25.4838 108.477 25.5757 108.475 25.6684C108.477 25.7669 108.459 25.8648 108.421 25.9556C108.382 26.0464 108.325 26.1281 108.253 26.1952C108.091 26.3412 107.877 26.4169 107.659 26.4056V26.4066ZM106.99 30.6375V26.821H108.325V30.6375H106.99Z" fill="white"/>
<path d="M109.183 32.0004V26.8209H110.462V27.4722L110.448 28.7372L110.519 29.9955V31.998H109.183V32.0004ZM111.58 30.7001C111.289 30.7083 111.002 30.6342 110.751 30.4863C110.511 30.3315 110.328 30.1037 110.228 29.8366C110.098 29.4861 110.037 29.1137 110.048 28.7399C110.037 28.3594 110.095 27.9801 110.218 27.6198C110.312 27.3549 110.491 27.1283 110.727 26.975C110.985 26.8238 111.282 26.7496 111.581 26.7611C111.912 26.7577 112.239 26.8425 112.526 27.0069C112.809 27.1701 113.042 27.4068 113.201 27.6918C113.374 28.0147 113.46 28.3775 113.45 28.744C113.46 29.1065 113.374 29.4651 113.201 29.7837C113.044 30.0694 112.81 30.3056 112.526 30.4652C112.237 30.6255 111.911 30.7074 111.581 30.7028L111.58 30.7001ZM111.299 29.6387C111.441 29.6409 111.581 29.6043 111.703 29.5328C111.826 29.4586 111.926 29.3514 111.991 29.2233C112.067 29.0733 112.105 28.9067 112.1 28.7386C112.106 28.5645 112.069 28.3917 111.991 28.2359C111.925 28.1096 111.826 28.0038 111.704 27.9299C111.582 27.8561 111.442 27.8171 111.299 27.8171C111.157 27.8171 111.017 27.8561 110.895 27.9299C110.773 28.0038 110.674 28.1096 110.608 28.2359C110.53 28.3917 110.492 28.5645 110.498 28.7386C110.494 28.9067 110.531 29.0733 110.608 29.2233C110.673 29.3514 110.772 29.4586 110.895 29.5328C111.018 29.6043 111.158 29.6409 111.299 29.6387Z" fill="white"/>
<path d="M115.98 30.7009C115.595 30.7083 115.214 30.6216 114.87 30.4484C114.556 30.2894 114.293 30.0474 114.107 29.7488C113.92 29.4435 113.824 29.0911 113.83 28.7329C113.824 28.3726 113.92 28.018 114.107 27.7103C114.293 27.4122 114.557 27.1704 114.87 27.0107C115.217 26.8444 115.597 26.7581 115.982 26.7581C116.367 26.7581 116.747 26.8444 117.094 27.0107C117.409 27.169 117.674 27.411 117.86 27.7103C118.048 28.0178 118.144 28.3726 118.137 28.7329C118.144 29.0912 118.048 29.4438 117.86 29.7488C117.673 30.0475 117.408 30.2894 117.094 30.4484C116.748 30.6213 116.366 30.708 115.98 30.7009ZM115.98 29.6395C116.122 29.6417 116.261 29.6051 116.384 29.5336C116.508 29.4587 116.607 29.3502 116.672 29.2207C116.748 29.0668 116.786 28.8965 116.781 28.7248C116.787 28.5544 116.749 28.3853 116.672 28.2333C116.62 28.1411 116.55 28.0602 116.467 27.995C116.384 27.9298 116.289 27.8818 116.187 27.8536C116.085 27.8255 115.979 27.8178 115.874 27.831C115.769 27.8442 115.668 27.878 115.576 27.9305C115.454 28.0033 115.355 28.108 115.288 28.2333C115.21 28.3851 115.173 28.5543 115.179 28.7248C115.174 28.8966 115.211 29.0669 115.288 29.2207C115.352 29.3502 115.452 29.4587 115.576 29.5336C115.699 29.6047 115.838 29.641 115.98 29.6385V29.6395Z" fill="white"/>
<path d="M120.133 30.7002C119.815 30.7007 119.497 30.6628 119.188 30.5875C118.928 30.5308 118.678 30.4361 118.446 30.3064L118.84 29.3931C119.038 29.5074 119.251 29.5951 119.473 29.6537C119.701 29.7183 119.938 29.7517 120.176 29.7528C120.335 29.7651 120.495 29.7397 120.643 29.6788C120.682 29.6611 120.714 29.6329 120.737 29.5975C120.76 29.562 120.772 29.5208 120.773 29.4786C120.772 29.4427 120.76 29.4079 120.739 29.3791C120.717 29.3502 120.688 29.3285 120.653 29.317C120.55 29.2739 120.442 29.2466 120.33 29.2362C120.195 29.2203 120.048 29.2023 119.891 29.1806C119.729 29.1584 119.568 29.1253 119.41 29.0815C119.253 29.04 119.103 28.9772 118.964 28.8948C118.83 28.8147 118.72 28.7009 118.644 28.5649C118.559 28.4003 118.518 28.2165 118.525 28.0313C118.522 27.797 118.597 27.5683 118.738 27.3816C118.902 27.1765 119.118 27.02 119.364 26.9289C119.688 26.8072 120.033 26.7495 120.38 26.7591C120.652 26.7598 120.924 26.788 121.191 26.8433C121.434 26.8877 121.668 26.9707 121.884 27.0891L121.483 28.0024C121.31 27.8957 121.12 27.8194 120.921 27.7771C120.748 27.7412 120.571 27.7226 120.394 27.7214C120.231 27.7109 120.066 27.7362 119.913 27.7954C119.818 27.8443 119.769 27.9067 119.769 27.9821C119.77 28.0202 119.782 28.057 119.805 28.0877C119.827 28.1184 119.859 28.1415 119.895 28.1538C119.998 28.1992 120.107 28.2298 120.218 28.2448C120.349 28.2665 120.496 28.2869 120.657 28.3086C120.819 28.33 120.98 28.3615 121.138 28.403C121.292 28.4429 121.439 28.5058 121.574 28.5896C121.706 28.6723 121.816 28.7855 121.894 28.9196C121.988 29.1028 122.03 29.3085 122.014 29.5138C121.999 29.7192 121.927 29.9163 121.806 30.0834C121.641 30.2886 121.422 30.4441 121.174 30.5328C120.841 30.6545 120.488 30.7121 120.134 30.7025L120.133 30.7002Z" fill="white"/>
<path d="M124.808 11.1664C124.53 11.1664 124.258 11.0839 124.027 10.9294C123.795 10.7749 123.615 10.5553 123.509 10.2983C123.402 10.0414 123.374 9.75862 123.429 9.48584C123.483 9.21306 123.617 8.96249 123.814 8.76583C124.01 8.56917 124.261 8.43524 124.534 8.38098C124.806 8.32672 125.089 8.35457 125.346 8.461C125.603 8.56743 125.823 8.74767 125.977 8.97892C126.132 9.21018 126.214 9.48205 126.214 9.76018C126.214 10.1331 126.066 10.4906 125.802 10.7543C125.538 11.018 125.181 11.1662 124.808 11.1664ZM124.808 8.43949C124.547 8.43949 124.291 8.51695 124.074 8.66207C123.857 8.80719 123.688 9.01345 123.588 9.25477C123.488 9.4961 123.462 9.76164 123.513 10.0178C123.564 10.274 123.689 10.5093 123.874 10.694C124.059 10.8787 124.294 11.0045 124.55 11.0555C124.806 11.1064 125.072 11.0803 125.313 10.9803C125.555 10.8804 125.761 10.7111 125.906 10.4939C126.051 10.2767 126.129 10.0214 126.129 9.76018C126.128 9.40986 125.989 9.07398 125.742 8.82611C125.494 8.57824 125.158 8.4386 124.808 8.43779V8.43949Z" fill="white"/>
<path d="M123.838 10.0971V9.3164H123.994L124.179 9.86999C124.196 9.92159 124.208 9.96017 124.216 9.98574C124.225 9.95722 124.239 9.91548 124.258 9.86049L124.445 9.31742H124.584V10.0981H124.484V9.44164L124.257 10.0971H124.163L123.937 9.4318V10.0974L123.838 10.0971ZM124.734 10.0971V9.98777H124.843V10.0971H124.734ZM124.992 10.0971V9.3164H125.338C125.392 9.31384 125.445 9.32062 125.497 9.33642C125.533 9.35069 125.564 9.37689 125.583 9.41076C125.606 9.44605 125.617 9.48687 125.617 9.52854C125.619 9.58054 125.6 9.63107 125.564 9.66906C125.519 9.71163 125.46 9.73727 125.398 9.74169C125.42 9.75198 125.441 9.76523 125.459 9.78106C125.492 9.81195 125.521 9.84684 125.545 9.88493L125.681 10.0977H125.551L125.449 9.93516C125.419 9.88832 125.394 9.85246 125.374 9.82757C125.36 9.80747 125.342 9.78982 125.322 9.77529C125.307 9.76581 125.291 9.75881 125.275 9.75459C125.255 9.75156 125.236 9.75031 125.217 9.75086H125.095V10.0981L124.992 10.0971ZM125.094 9.66023H125.316C125.354 9.6617 125.392 9.65665 125.429 9.6453C125.454 9.63688 125.475 9.62039 125.489 9.59846C125.503 9.57758 125.51 9.55314 125.51 9.5282C125.511 9.51093 125.507 9.49379 125.5 9.47799C125.493 9.4622 125.483 9.44816 125.47 9.43689C125.433 9.41003 125.388 9.39737 125.342 9.40125H125.095L125.094 9.66023ZM125.762 10.0971V9.98777H125.87V10.0971H125.762Z" fill="white"/>
<defs>
<linearGradient id="paint0_linear_45_1265" x1="11.5283" y1="16.9599" x2="10.4466" y2="32.1127" gradientUnits="userSpaceOnUse">
<stop stop-color="#A535CA"/>
<stop offset="1" stop-color="#440076"/>
</linearGradient>
<linearGradient id="paint1_linear_45_1265" x1="45.2059" y1="16.811" x2="45.1168" y2="23.8716" gradientUnits="userSpaceOnUse">
<stop stop-color="#A535CA"/>
<stop offset="1" stop-color="#440076"/>
</linearGradient>
<linearGradient id="paint2_linear_45_1265" x1="69.8133" y1="0.0696005" x2="69.2085" y2="10.6476" gradientUnits="userSpaceOnUse">
<stop stop-color="#A535CA"/>
<stop offset="1" stop-color="#440076"/>
</linearGradient>
<linearGradient id="paint3_linear_45_1265" x1="67.9459" y1="1.34252" x2="60.3379" y2="28.4096" gradientUnits="userSpaceOnUse">
<stop stop-color="#A535CA"/>
<stop offset="1" stop-color="#440076"/>
</linearGradient>
</defs>
</svg>
