<svg width="47" height="48" viewBox="0 0 47 48" fill="none" xmlns="http://www.w3.org/2000/svg">
<g clip-path="url(#clip0_680_223)">
<path d="M38.0442 15.8489C39.1859 17.8417 39.4273 20.1095 38.8954 22.1745C38.1045 21.1369 37.1049 20.2361 35.9116 19.5419C35.1384 19.0921 34.3122 18.7475 33.4572 18.5157C33.681 17.6682 33.803 16.7788 33.803 15.8616C33.803 14.4743 33.5276 13.153 33.0322 11.9443C35.073 12.5132 36.9012 13.8561 38.0429 15.8489H38.0442Z" fill="#052F60"/>
<path d="M31.9453 32.6603C31.9453 34.2009 31.5329 35.6439 30.8162 36.8867C30.8086 36.8867 30.8023 36.8867 30.7948 36.8867C29.3765 36.8867 27.938 36.5231 26.6215 35.7566C25.9274 35.3525 25.3138 34.8622 24.7832 34.3073C25.437 33.3508 25.9299 32.279 26.2367 31.1249C26.3876 30.5586 26.487 29.9872 26.541 29.4146C27.8613 30.0265 29.3148 30.3597 30.8111 30.3597C31.0815 30.3597 31.3506 30.347 31.6184 30.3254C31.8296 31.0666 31.9453 31.8495 31.9453 32.6591V32.6603Z" fill="#052F60"/>
<path d="M16.3712 36.8869C16.3637 36.8869 16.3574 36.8869 16.3498 36.8869C15.6331 35.6441 15.2207 34.2011 15.2207 32.6605C15.2207 31.851 15.3364 31.068 15.5476 30.3269C15.8154 30.3484 16.0858 30.3611 16.3561 30.3611C17.8524 30.3611 19.306 30.0279 20.6262 29.416C20.6803 29.9887 20.7796 30.56 20.9305 31.1263C21.2373 32.2805 21.7315 33.3522 22.3841 34.3088C21.8534 34.8624 21.2398 35.3539 20.5458 35.7581C19.2293 36.5245 17.7908 36.8881 16.3725 36.8881L16.3712 36.8869Z" fill="#052F60"/>
<path d="M15.2207 15.8611C15.2207 14.3206 15.6331 12.8776 16.3498 11.6348C16.3574 11.6348 16.3637 11.6348 16.3712 11.6348C17.7896 11.6348 19.228 11.9984 20.5445 12.7648C21.2411 13.1702 21.856 13.6631 22.3878 14.2192C21.3945 15.6762 20.7947 17.3649 20.6313 19.1094C19.3097 18.4963 17.8537 18.1618 16.3561 18.1618C16.0858 18.1618 15.8167 18.1745 15.5489 18.196C15.3376 17.4549 15.222 16.6732 15.222 15.8624L15.2207 15.8611Z" fill="#052F60"/>
<path d="M30.794 11.6351C30.8015 11.6351 30.8078 11.6351 30.8153 11.6351C31.532 12.8779 31.9445 14.3209 31.9445 15.8614C31.9445 16.671 31.8288 17.4539 31.6175 18.195C31.3497 18.1735 31.0794 18.1608 30.8103 18.1608C29.3115 18.1608 27.8567 18.4953 26.5339 19.1085C26.3705 17.3639 25.7707 15.6752 24.7773 14.2182C25.3092 13.6621 25.9241 13.1693 26.6207 12.7639C27.9372 11.9974 29.3756 11.6338 30.794 11.6338V11.6351Z" fill="#052F60"/>
<path d="M26.2376 22.7167C26.3671 22.2251 26.4601 21.7272 26.5155 21.2293C27.8131 20.4502 30.8333 20.0347 30.8459 20.0347C30.0915 21.3662 28.9862 22.4696 27.6572 23.2184C27.1995 23.0169 26.7255 22.8484 26.2363 22.7167H26.2376Z" fill="#052F60"/>
<path d="M24.7247 20.1877C24.3223 20.4879 23.9401 20.816 23.583 21.1746C23.2259 20.816 22.8436 20.4879 22.4413 20.1877C22.4199 18.6522 22.816 17.137 23.583 15.8105C24.35 17.1357 24.746 18.6522 24.7247 20.1877Z" fill="#052F60"/>
<path d="M16.3571 20.0332C17.8672 20.0332 19.3534 20.4487 20.651 21.2279C20.7064 21.727 20.7994 22.2237 20.9289 22.7165C20.4398 22.8495 19.9658 23.018 19.5081 23.2182C18.179 22.4694 17.075 21.366 16.3193 20.0345C16.3319 20.0345 16.3432 20.0345 16.3558 20.0345L16.3571 20.0332Z" fill="#052F60"/>
<path d="M17.6803 24.2608C16.262 25.2755 15.1102 26.6438 14.3545 28.2388C13.6114 28.0526 12.8796 27.7637 12.183 27.3583C10.859 26.588 9.82538 25.5074 9.11621 24.2608C9.82538 23.0141 10.859 21.9335 12.183 21.1632C12.8796 20.7578 13.6101 20.4689 14.3545 20.2827C15.1102 21.8777 16.262 23.246 17.6803 24.2608Z" fill="#052F60"/>
<path d="M19.5081 25.3037C19.9645 25.5039 20.4373 25.6724 20.9264 25.8054C20.7956 26.2957 20.7013 26.7936 20.6448 27.2965C19.3484 28.0731 17.8634 28.4887 16.3558 28.4887C16.3432 28.4887 16.3319 28.4887 16.3193 28.4887C17.0738 27.1572 18.179 26.0537 19.5081 25.305V25.3037Z" fill="#052F60"/>
<path d="M22.4413 28.3341C22.8436 28.0338 23.2259 27.7057 23.583 27.3472C23.9401 27.7044 24.3223 28.0338 24.7247 28.3341C24.746 29.8695 24.35 31.3848 23.583 32.7112C22.816 31.386 22.4199 29.8695 22.4413 28.3341Z" fill="#052F60"/>
<path d="M30.8099 28.4885C29.3023 28.4885 27.8185 28.0742 26.5209 27.2963C26.4643 26.7934 26.37 26.2942 26.2393 25.8039C26.7271 25.6709 27.2012 25.5037 27.6576 25.3022C28.9867 26.051 30.0906 27.1544 30.8463 28.4859C30.8338 28.4859 30.8224 28.4859 30.8099 28.4859V28.4885Z" fill="#052F60"/>
<path d="M29.4854 24.2608C30.9037 23.246 32.0555 21.8777 32.8124 20.2827C33.5555 20.4689 34.2873 20.7578 34.9839 21.1632C36.308 21.9335 37.3415 23.0141 38.0507 24.2608C37.3415 25.5074 36.3067 26.588 34.9839 27.3583C34.2873 27.7637 33.5568 28.0538 32.8124 28.2388C32.0567 26.6438 30.9049 25.2755 29.4866 24.2608H29.4854Z" fill="#052F60"/>
<path d="M29.4431 9.85375C28.1278 10.0324 26.8503 10.4695 25.691 11.1434C24.9026 11.6021 24.1985 12.1532 23.5824 12.7727C22.9663 12.1532 22.2621 11.6021 21.4737 11.1434C20.3144 10.4695 19.0369 10.0324 17.7217 9.85375C19.2305 8.35882 21.299 7.43652 23.5824 7.43652C25.8658 7.43652 27.9342 8.36009 29.4431 9.85375Z" fill="#052F60"/>
<path d="M9.12154 15.8489C10.2633 13.8561 12.0928 12.5132 14.1322 11.9443C13.6368 13.153 13.3615 14.4756 13.3615 15.8616C13.3615 16.7788 13.4834 17.6682 13.7072 18.5157C12.8522 18.7475 12.0261 19.0921 11.2528 19.5419C10.0784 20.2247 9.07125 21.1166 8.26778 22.1656C7.73967 20.1031 7.98109 17.8392 9.12154 15.8476V15.8489Z" fill="#052F60"/>
<path d="M9.12154 32.673C7.98109 30.6827 7.73967 28.4175 8.26778 26.355C9.07125 27.404 10.0797 28.2959 11.2528 28.9787C12.0261 29.4285 12.8522 29.7731 13.7072 30.0049C13.4834 30.8524 13.3615 31.7418 13.3615 32.659C13.3615 34.045 13.6368 35.3676 14.1322 36.5763C12.0915 36.0074 10.2633 34.6645 9.12154 32.6717V32.673Z" fill="#052F60"/>
<path d="M17.7217 38.668C19.0369 38.4894 20.3144 38.0523 21.4737 37.3784C22.2546 36.9248 22.96 36.3762 23.5824 35.7529C24.2048 36.3762 24.9102 36.9248 25.691 37.3784C26.8503 38.0523 28.1278 38.4894 29.4431 38.668C27.9342 40.163 25.8658 41.0853 23.5824 41.0853C21.299 41.0853 19.2305 40.1617 17.7217 38.668Z" fill="#052F60"/>
<path d="M38.0439 32.6732C36.9022 34.666 35.0727 36.0089 33.0332 36.5777C33.5286 35.3691 33.804 34.0465 33.804 32.6605C33.804 31.7433 33.682 30.8539 33.4582 30.0064C34.3132 29.7745 35.1393 29.4299 35.9126 28.9802C37.087 28.2973 38.0942 27.4054 38.8977 26.3564C39.4258 28.4189 39.1844 30.6829 38.0439 32.6744V32.6732Z" fill="#052F60"/>
<path d="M3.93532 29.3204L0.133789 30.3467L0.265591 30.8423L4.06712 29.816L3.93532 29.3204Z" fill="#052F60"/>
<path fill-rule="evenodd" clip-rule="evenodd" d="M3.65674 28.2476L0.794919 28.653L0.747138 28.3096L1.09921 28.1677C0.815037 27.908 0.647804 27.6014 0.598766 27.248C0.498175 26.5284 0.803721 26.1192 1.51415 26.0178L3.3097 25.7632L3.38011 26.2712L1.57576 26.5271C1.15076 26.5879 0.968439 26.8312 1.02754 27.2568C1.06777 27.5482 1.22746 27.8067 1.50534 28.0347L3.58507 27.7408L3.65548 28.2488L3.65674 28.2476Z" fill="#052F60"/>
<path fill-rule="evenodd" clip-rule="evenodd" d="M3.13508 24.7459L2.695 24.7307C2.81696 24.3924 2.8836 24.0491 2.89618 23.7007C2.91252 23.237 2.78301 23.0001 2.50764 22.9912C2.25114 22.9824 2.1166 23.1395 2.10528 23.4625L2.09145 23.8781C2.07007 24.5064 1.77459 24.8105 1.20625 24.7902C0.655509 24.7712 0.395229 24.3582 0.422891 23.5499C0.435465 23.2028 0.493305 22.8595 0.596411 22.5212L1.0365 22.5364C0.914531 22.8747 0.847889 23.2167 0.835315 23.5639C0.818969 24.0478 0.947223 24.2949 1.22259 24.3037C1.4791 24.3126 1.61238 24.1644 1.6237 23.8603L1.63753 23.4448C1.66016 22.7797 1.95691 22.4579 2.52525 22.4769C3.07473 22.4959 3.33626 22.9089 3.3086 23.7146C3.29603 24.0643 3.23819 24.4076 3.13508 24.7459Z" fill="#052F60"/>
<path fill-rule="evenodd" clip-rule="evenodd" d="M0.139234 21.2294L0.183242 20.9114L0.662308 20.867L0.770444 20.0879L1.1791 20.1462L1.08102 20.8468L2.72443 21.0799C2.991 21.1179 3.14062 21.0203 3.17332 20.7885L3.22235 20.4376L3.63101 20.4958L3.56311 20.9785C3.49521 21.4612 3.20475 21.6664 2.69048 21.5942L0.136719 21.2332L0.139234 21.2294Z" fill="#052F60"/>
<path fill-rule="evenodd" clip-rule="evenodd" d="M1.13794 18.4851L3.94192 19.1895L3.8187 19.6874L1.01471 18.983L1.13794 18.4851ZM0.123224 18.2305L0.590973 18.3483L0.467749 18.8462L0 18.7284L0.123224 18.2305Z" fill="#052F60"/>
<path fill-rule="evenodd" clip-rule="evenodd" d="M1.00195 17.2181L1.10003 16.9128L1.5791 16.9533L1.82051 16.2046L2.21282 16.3325L1.99655 17.0053L3.57457 17.5222C3.83108 17.6058 3.9958 17.5361 4.06747 17.3131L4.17686 16.9761L4.56917 17.1041L4.41954 17.5678C4.26991 18.0314 3.94802 18.1835 3.45386 18.0213L1.00195 17.2181Z" fill="#052F60"/>
<path fill-rule="evenodd" clip-rule="evenodd" d="M3.34239 12.8045L5.9389 14.0803L5.7855 14.397L5.41583 14.3134C5.48247 14.739 5.43972 15.1128 5.2838 15.4333C4.99209 16.0351 4.52434 16.177 3.88055 15.8602L2.25098 15.0596L2.47353 14.5984L4.11066 15.4029C4.49668 15.5929 4.7821 15.4941 4.96946 15.109C5.09771 14.8442 5.10903 14.5389 5.00592 14.1917L3.11858 13.2644L3.34113 12.8032L3.34239 12.8045Z" fill="#052F60"/>
<path fill-rule="evenodd" clip-rule="evenodd" d="M3.75 11.3017L3.93358 11.0382L4.37995 11.2181L4.82758 10.5732L5.16582 10.8114L4.76346 11.3904L6.1227 12.3494C6.344 12.5053 6.52129 12.4875 6.65457 12.2949L6.85701 12.0048L7.19525 12.243L6.91737 12.6421C6.63948 13.0424 6.28867 13.0918 5.86242 12.7916L3.75 11.3017Z" fill="#052F60"/>
<path fill-rule="evenodd" clip-rule="evenodd" d="M8.16685 10.3848C8.55412 9.95278 8.48874 9.50176 7.97195 9.03301C7.46648 8.5744 7.02011 8.56173 6.63283 8.99374C6.24681 9.42702 6.30591 9.8717 6.81138 10.3316C7.32817 10.8003 7.77957 10.8181 8.16685 10.3861V10.3848ZM6.47943 10.7192C5.76397 10.0706 5.71242 9.40168 6.32603 8.71502C6.93963 8.02837 7.60479 8.00937 8.32025 8.65928C9.03445 9.30793 9.08474 9.97432 8.47114 10.6622C7.86004 11.3464 7.19614 11.3654 6.47943 10.7205V10.7192Z" fill="#052F60"/>
<path fill-rule="evenodd" clip-rule="evenodd" d="M11.4173 5.07773C11.1923 5.11447 10.971 5.20949 10.7547 5.36278C10.2781 5.69851 10.2178 6.12165 10.5724 6.63221C10.9923 7.23651 11.44 7.3708 11.9165 7.03381C12.1328 6.88052 12.3051 6.71582 12.4321 6.53846L11.4173 5.07773ZM13.0545 6.53972C12.8332 6.83744 12.5125 7.13516 12.0926 7.43161C11.3872 7.92824 10.7484 7.76354 10.1738 6.93753C9.64316 6.17486 9.75256 5.52874 10.5007 5.00045C10.7057 4.85602 10.9244 4.75847 11.1583 4.70526L10.4793 3.72849L10.8968 3.43457L13.0545 6.53972Z" fill="#052F60"/>
<path fill-rule="evenodd" clip-rule="evenodd" d="M13.9278 3.0503C14.6722 2.70064 15.2166 2.89701 15.5599 3.63814C15.6089 3.74329 15.6529 3.85984 15.6944 3.9878L13.8561 4.85182C14.1063 5.39152 14.5426 5.51441 15.1688 5.22049C15.4668 5.08113 15.7158 4.92277 15.9157 4.74794L16.0905 5.12547C15.8906 5.30157 15.6253 5.46626 15.2946 5.62209C14.3955 6.04523 13.7367 5.80579 13.3205 4.9063C12.9231 4.04734 13.1256 3.4291 13.9278 3.05157V3.0503ZM13.6776 4.46542L15.0946 3.8003C14.8708 3.34295 14.5389 3.21626 14.1 3.42277C13.6348 3.64194 13.494 3.98907 13.6776 4.46542Z" fill="#052F60"/>
<path fill-rule="evenodd" clip-rule="evenodd" d="M18.466 4.31113L18.3767 3.84872C18.8105 3.9146 19.2619 3.90193 19.7309 3.80945C20.3948 3.67896 20.6803 3.36983 20.586 2.87955C20.5055 2.46274 20.2201 2.30184 19.7309 2.39686L19.2343 2.49441C18.4258 2.65277 17.953 2.37786 17.8172 1.67093C17.6739 0.927266 18.119 0.453449 19.1551 0.250746C19.6052 0.162064 20.034 0.135459 20.4426 0.168398L20.5319 0.630814C20.117 0.561135 19.6844 0.57127 19.2343 0.658685C18.5327 0.796777 18.2259 1.10083 18.3176 1.57211C18.3981 1.98892 18.676 2.15108 19.1513 2.0586L19.648 1.96105C20.4703 1.80016 20.9506 2.07254 21.0877 2.78073C21.2348 3.54213 20.8098 4.02102 19.8114 4.21739C19.3412 4.30987 18.8935 4.34027 18.4673 4.31113H18.466Z" fill="#052F60"/>
<path fill-rule="evenodd" clip-rule="evenodd" d="M22.0432 2.98066C22.0332 2.38395 22.418 2.07863 23.2 2.0647C23.4515 2.0609 23.703 2.07483 23.9545 2.1065L23.9495 1.83159C23.9432 1.49713 23.6816 1.33497 23.1623 1.34384C22.8656 1.3489 22.5613 1.40085 22.2507 1.4984L22.2432 1.08286C22.5537 0.985305 22.8568 0.933363 23.1548 0.928295C24.0136 0.913092 24.4474 1.20701 24.4574 1.80878L24.4926 3.81554L24.206 3.82061L24.0249 3.53556C23.7407 3.73319 23.4276 3.83454 23.0894 3.84088C22.4016 3.85355 22.0521 3.56596 22.042 2.98066H22.0432ZM23.2063 2.48024C22.7637 2.48784 22.5462 2.64873 22.5512 2.96292C22.5563 3.27711 22.7336 3.43041 23.0819 3.42534C23.4339 3.419 23.7307 3.32019 23.9708 3.12635L23.9608 2.52205C23.7093 2.48911 23.4578 2.47517 23.2063 2.48024Z" fill="#052F60"/>
<path d="M25.9826 -0.000756063L25.5029 3.93506L26.0084 3.99759L26.488 0.061774L25.9826 -0.000756063Z" fill="#052F60"/>
<path fill-rule="evenodd" clip-rule="evenodd" d="M30.1167 1.86339L29.4176 4.68856L29.0781 4.60367L29.0819 4.22234C28.682 4.3769 28.3111 4.41111 27.9678 4.32496C27.324 4.1628 27.0876 3.73205 27.2612 3.03019L27.7 1.25781L28.1942 1.38197L27.7541 3.16322C27.6497 3.58256 27.8044 3.84481 28.218 3.94869C28.501 4.01964 28.8002 3.96896 29.1158 3.79413L29.6238 1.74177L30.118 1.86592L30.1167 1.86339Z" fill="#052F60"/>
<path fill-rule="evenodd" clip-rule="evenodd" d="M33.1112 3.65859C32.9641 3.48249 32.7692 3.34186 32.5278 3.23291C31.9959 2.99473 31.6049 3.15943 31.3534 3.72953C31.0554 4.40352 31.1723 4.8596 31.7042 5.09777C31.9456 5.20546 32.1745 5.26881 32.392 5.28781L33.1112 3.65985V3.65859ZM32.7114 5.82497C32.3442 5.78823 31.9255 5.66408 31.4565 5.45377C30.6706 5.10158 30.4808 4.46433 30.8882 3.54203C31.2641 2.69068 31.8702 2.4525 32.7038 2.8275C32.9314 2.93012 33.1288 3.06821 33.2935 3.24431L33.7751 2.15479L34.2404 2.36382L32.7101 5.82624L32.7114 5.82497Z" fill="#052F60"/>
<path fill-rule="evenodd" clip-rule="evenodd" d="M39.2533 5.61355L39.0056 5.94547L37.3572 4.69378L36.5625 5.7567L38.1342 6.95012L37.8853 7.28204L36.3135 6.08863L35.2372 7.52782L34.8311 7.21996L37.1987 4.05273L39.2533 5.61355Z" fill="#052F60"/>
<path fill-rule="evenodd" clip-rule="evenodd" d="M41.2499 9.14823L39.1362 11.1334L38.8973 10.8763L39.1073 10.5583C38.6886 10.4696 38.3579 10.2935 38.1165 10.0325C37.6638 9.5435 37.699 9.05194 38.2246 8.55912L39.5512 7.3125L39.8982 7.6875L38.5654 8.93919C38.251 9.23437 38.2397 9.53843 38.5302 9.85262C38.7289 10.068 39.008 10.1883 39.3663 10.2149L40.9016 8.77196L41.2487 9.14696L41.2499 9.14823Z" fill="#052F60"/>
<path fill-rule="evenodd" clip-rule="evenodd" d="M39.7891 11.9364L42.2121 10.3516L42.3994 10.6417L42.1391 10.9204C42.5063 11.0357 42.7854 11.2422 42.9791 11.5412C43.3714 12.1505 43.267 12.6522 42.666 13.045L41.1445 14.0395L40.8679 13.6087L42.3956 12.6092C42.7552 12.3735 42.8194 12.0758 42.5868 11.7135C42.4283 11.4664 42.1743 11.3005 41.8273 11.2118L40.0669 12.3634L39.7891 11.9326V11.9364Z" fill="#052F60"/>
<path fill-rule="evenodd" clip-rule="evenodd" d="M42.6108 16.8645C42.4599 16.6707 42.3266 16.4477 42.2109 16.1956C41.7771 15.2569 42.0122 14.5753 42.9188 14.1496C43.7587 13.7556 44.395 14.0267 44.83 14.9655C44.9457 15.2163 45.03 15.4634 45.0803 15.7041L44.7056 15.8802C44.6553 15.6395 44.5673 15.3848 44.4428 15.1162C44.1599 14.5043 43.7235 14.3371 43.1326 14.6145C42.4762 14.9237 42.2889 15.3835 42.5718 15.9942C42.6963 16.2628 42.8333 16.4933 42.9842 16.6872L42.6095 16.8633L42.6108 16.8645Z" fill="#052F60"/>
<path fill-rule="evenodd" clip-rule="evenodd" d="M45.6839 17.2967L42.9365 18.1962L42.7793 17.7085L45.5267 16.809L45.6839 17.2967ZM46.6785 16.9712L46.2208 17.1206L46.0636 16.6329L46.5213 16.4834L46.6785 16.9712Z" fill="#052F60"/>
<path fill-rule="evenodd" clip-rule="evenodd" d="M43.8942 20.3185C44.0049 20.8898 44.4009 21.109 45.0837 20.9747C45.7514 20.8442 46.0305 20.4933 45.9211 19.9206C45.8105 19.3493 45.4219 19.1288 44.753 19.2593C44.0702 19.3936 43.7848 19.7458 43.8942 20.3172V20.3185ZM44.6449 18.7589C45.5904 18.5739 46.15 18.935 46.326 19.8421C46.5008 20.7492 46.116 21.2952 45.1705 21.4802C44.2262 21.6652 43.6679 21.3041 43.4931 20.397C43.3183 19.4937 43.7031 18.9477 44.6461 18.7589H44.6449Z" fill="#052F60"/>
<path fill-rule="evenodd" clip-rule="evenodd" d="M43.8301 22.6542L46.7196 22.6035L46.7258 22.9506L46.3587 23.0482C46.6089 23.3408 46.7384 23.6664 46.7447 24.0237C46.7573 24.7496 46.4052 25.1196 45.6872 25.1322L43.8741 25.1639L43.8653 24.6508L45.6872 24.6191C46.116 24.6115 46.3273 24.3924 46.3197 23.9616C46.3147 23.6677 46.1877 23.3903 45.9387 23.1305L43.8389 23.1673L43.8301 22.6542Z" fill="#052F60"/>
<path fill-rule="evenodd" clip-rule="evenodd" d="M44.665 26.1635C45.2522 26.2471 45.4911 26.6778 45.3817 27.4582C45.3465 27.7091 45.2937 27.9574 45.222 28.2032L45.4923 28.2412C45.8218 28.2881 46.0217 28.0524 46.0946 27.5342C46.1361 27.2378 46.1323 26.9274 46.0858 26.6031L46.4945 26.6614C46.5422 26.9857 46.5448 27.2961 46.5033 27.5925C46.3838 28.4489 46.028 28.8353 45.4357 28.7517L43.4629 28.4718L43.5031 28.1867L43.8112 28.0511C43.6628 27.737 43.6113 27.4101 43.659 27.0718C43.7546 26.3852 44.0903 26.0837 44.6662 26.1647L44.665 26.1635ZM44.973 27.4C45.0346 26.9591 44.9114 26.7171 44.6021 26.6728C44.2928 26.6284 44.1142 26.7804 44.0664 27.1288C44.0174 27.481 44.069 27.7914 44.2198 28.06L44.8133 28.1449C44.885 27.8991 44.9378 27.6508 44.973 27.4Z" fill="#052F60"/>
<path d="M43.2002 29.4346L43.0684 29.9302L46.8687 30.9562L47.0005 30.4606L43.2002 29.4346Z" fill="#052F60"/>
<path fill-rule="evenodd" clip-rule="evenodd" d="M3.23447 31.8092C3.60037 31.6597 3.85688 31.7699 4.00525 32.1386C4.15237 32.5073 4.04423 32.7657 3.67833 32.9152C3.31243 33.0634 3.05592 32.9545 2.90881 32.5858C2.76044 32.2171 2.86983 31.9587 3.23573 31.8105L3.23447 31.8092Z" fill="#052F60"/>
<path fill-rule="evenodd" clip-rule="evenodd" d="M3.00781 36.2027L5.87718 34.1782L6.26445 34.7344L4.76816 37.2517L7.61363 36.6753L7.98582 37.2112L5.1152 39.2369L4.77067 38.7416L6.76992 37.3303L4.22622 37.9561L3.9081 37.4987L5.35159 35.288L3.35234 36.6981L3.00781 36.2027Z" fill="#052F60"/>
<path fill-rule="evenodd" clip-rule="evenodd" d="M10.3362 39.5903L9.94893 39.9957L8.68651 38.7668L8.07416 39.4066L9.27622 40.5759L8.8726 40.9965L7.66551 39.8221L7.02675 40.4885L8.31809 41.7452L7.92705 42.1544L6.17676 40.4505L8.61107 37.9116L10.3362 39.5903Z" fill="#052F60"/>
<path fill-rule="evenodd" clip-rule="evenodd" d="M8.91211 43.0246L10.9214 40.1323L11.4533 40.5073L11.5048 43.6847L12.9685 41.5766L13.4802 41.9376L11.4709 44.83L10.939 44.455L10.9189 41.2333L9.42387 43.3857L8.91211 43.0246Z" fill="#052F60"/>
<path fill-rule="evenodd" clip-rule="evenodd" d="M16.3997 43.291L16.162 43.8066L15.2517 43.3784L14.0094 46.063L13.4209 45.7868L14.6632 43.1022L13.7528 42.674L13.9905 42.1597L16.3997 43.291Z" fill="#052F60"/>
<path fill-rule="evenodd" clip-rule="evenodd" d="M19.1838 44.1576L19.0203 44.696L17.3417 44.1779L17.0839 45.0292L18.6821 45.5208L18.5123 46.0808L16.9079 45.5867L16.6388 46.471L18.3564 47.0005L18.1917 47.5427L15.8643 46.8269L16.889 43.4507L19.1838 44.1576Z" fill="#052F60"/>
<path d="M20.8301 46.3901L20.7852 46.9062L22.0052 47.014L22.0501 46.4978L20.8301 46.3901Z" fill="#052F60"/>
<path fill-rule="evenodd" clip-rule="evenodd" d="M27.1851 47.7237C26.8934 47.8656 26.5577 47.953 26.1754 47.9859C24.9218 48.0962 24.2428 47.5413 24.1372 46.32C24.0366 45.1646 24.6125 44.5311 25.8661 44.4209C26.2484 44.3867 26.5954 44.4146 26.906 44.5032L26.9575 45.0936C26.6457 44.9885 26.3137 44.9517 25.9642 44.9834C25.1268 45.0569 24.7407 45.4838 24.8086 46.263C24.8816 47.108 25.338 47.4931 26.1754 47.4184C26.525 47.388 26.8456 47.2929 27.1348 47.1358L27.1864 47.7262L27.1851 47.7237Z" fill="#052F60"/>
<path fill-rule="evenodd" clip-rule="evenodd" d="M28.3353 46.2577L27.7129 44.2079L28.334 44.0166L28.9564 46.0664C29.1199 46.6049 29.4745 46.7898 30.0215 46.6213C30.5684 46.4528 30.7595 46.0994 30.5961 45.561L29.9737 43.5111L30.5948 43.3198L31.2172 45.3697C31.4901 46.2704 31.1468 46.8684 30.1862 47.1636C29.2255 47.46 28.6082 47.1572 28.3353 46.2577Z" fill="#052F60"/>
<path fill-rule="evenodd" clip-rule="evenodd" d="M33.5939 41.9468L33.8379 42.4523L32.2611 43.2276L32.6484 44.0257L34.1497 43.2871L34.4049 43.8142L32.8961 44.5553L33.2984 45.3877L34.9129 44.5933L35.1606 45.1039L32.9728 46.1782L31.4375 43.0059L33.5939 41.9468Z" fill="#052F60"/>
<path fill-rule="evenodd" clip-rule="evenodd" d="M36.351 44.3717L34.2939 41.52L35.5828 40.5761C36.1612 40.153 36.6352 40.1961 37.0024 40.7053C37.2513 41.0499 37.2312 41.501 36.9445 42.0571L38.7325 42.6336L38.0699 43.1188L36.3108 42.5056L36.136 42.2636C36.5761 41.8101 36.6855 41.43 36.4642 41.1234C36.3121 40.9131 36.1197 40.8941 35.8833 41.0664L35.1641 41.5934L36.8854 43.9803L36.3498 44.3717H36.351Z" fill="#052F60"/>
<path fill-rule="evenodd" clip-rule="evenodd" d="M39.5474 41.8947L37.0264 39.442L38.1153 38.3056C38.6119 37.7875 39.0973 37.7583 39.5713 38.2195C40.0843 38.7186 40.0554 39.3762 39.4846 40.1908L39.0042 39.8538C39.3362 39.3533 39.3727 38.9771 39.1149 38.7262C38.9062 38.5223 38.7 38.5261 38.4988 38.7364L37.8902 39.3724L40.0001 41.4247L39.5487 41.8947H39.5474Z" fill="#052F60"/>
<path fill-rule="evenodd" clip-rule="evenodd" d="M42.6371 37.4607C43.042 36.8779 42.91 36.3521 42.2423 35.8809C41.5847 35.4172 41.0541 35.4767 40.6492 36.0595C40.2343 36.6562 40.355 37.187 41.0126 37.6507C41.6803 38.122 42.2222 38.0587 42.6371 37.4619V37.4607ZM40.6392 38.2145C39.6659 37.5278 39.5163 36.7005 40.189 35.7326C40.8517 34.7799 41.669 34.6456 42.6422 35.3323C43.6091 36.0152 43.7625 36.8323 43.0999 37.7863C42.4573 38.7111 41.6375 38.8543 40.6392 38.2145Z" fill="#052F60"/>
<path fill-rule="evenodd" clip-rule="evenodd" d="M43.4715 32.9163C43.1056 32.7681 42.9975 32.5084 43.1446 32.141C43.2917 31.7723 43.5495 31.6633 43.9154 31.8116C44.2813 31.9611 44.3894 32.2195 44.2423 32.5882C44.0952 32.9568 43.8374 33.0658 43.4715 32.9176V32.9163Z" fill="#052F60"/>
</g>
<defs>
<clipPath id="clip0_680_223">
<rect width="47" height="48" rx="16" fill="white"/>
</clipPath>
</defs>
</svg>
